<svg width="115" height="18" viewBox="0 0 115 18" fill="none" xmlns="http://www.w3.org/2000/svg">
<path opacity="0.0476" d="M112.022 9.26558C112.022 16.8317 62.061 19.1804 28.7488 16.6682C8.85954 15.1818 2.14062 12.075 2.14062 9.26558C2.14062 6.45614 8.85954 3.36426 28.7488 1.86292C62.061 -0.649229 112.022 1.68455 112.022 9.26558Z" fill="#FCFCFC"/>
<path opacity="0.0952" d="M109.896 9.26558C109.896 16.4899 62.1502 18.7493 30.1759 16.3561C10.9407 14.9439 4.28125 11.971 4.28125 9.26558C4.28125 6.56019 10.9407 3.58726 30.1759 2.17511C62.1502 -0.218121 109.896 2.04131 109.896 9.26558Z" fill="#FAFAFA"/>
<path opacity="0.1429" d="M107.756 9.26562C107.756 16.148 62.2397 18.3034 31.5883 16.0439C13.0072 14.7061 6.40723 11.8521 6.40723 9.26562C6.40723 6.67916 13.0072 3.82513 31.5883 2.4873C62.2397 0.212991 107.756 2.38324 107.756 9.26562Z" fill="#F7F7F7"/>
<path opacity="0.1905" d="M105.615 9.26546C105.615 15.806 62.328 17.8722 32.9996 15.7316C15.0725 14.4681 8.54688 11.7479 8.54688 9.26546C8.54688 6.78305 15.0874 4.06279 32.9996 2.79928C62.328 0.643895 105.615 2.72497 105.615 9.26546Z" fill="#F4F5F5"/>
<path opacity="0.2381" d="M103.489 9.26565C103.489 15.4494 62.4173 17.4412 34.4267 15.4196C17.1686 14.2305 10.6875 11.6291 10.6875 9.26565C10.6875 6.88729 17.1537 4.3008 34.4267 3.11162C62.4173 1.09002 103.489 3.06705 103.489 9.26565Z" fill="#F2F2F2"/>
<path opacity="0.2857" d="M101.349 9.26552C101.349 15.1074 62.5066 17.0101 35.839 15.1222C19.2349 14.0074 12.8281 11.5398 12.8281 9.26552C12.8281 6.99121 19.2349 4.53852 35.839 3.4088C62.5066 1.52098 101.349 3.4088 101.349 9.26552Z" fill="#EFEFF0"/>
<path opacity="0.3333" d="M99.2083 9.26548C99.2083 14.7654 62.5961 16.5641 37.2514 14.81C21.3014 13.7695 14.9541 11.4357 14.9541 9.26548C14.9541 7.09522 21.3014 4.76144 37.2514 3.72091C62.5961 1.952 99.2083 3.76552 99.2083 9.26548Z" fill="#ECEDED"/>
<path opacity="0.381" d="M97.0678 9.26547C97.0678 14.4235 62.6853 16.0735 38.6637 14.4979C23.3826 13.487 17.0947 11.3168 17.0947 9.26547C17.0947 7.21414 23.3826 4.9993 38.6637 4.0331C62.6853 2.39797 97.0678 4.1074 97.0678 9.26547Z" fill="#E9EAEB"/>
<path opacity="0.4286" d="M94.9422 9.2655C94.9422 14.0668 62.7746 15.6425 40.0908 14.1857C25.4637 13.2492 19.2354 11.2128 19.2354 9.2655C19.2354 7.31821 25.4489 5.23715 40.0908 4.34526C62.7746 2.82906 94.9422 4.44931 94.9422 9.2655Z" fill="#E7E7E8"/>
<path opacity="0.4762" d="M92.8018 9.26564C92.8018 13.7251 62.8639 15.1967 41.503 13.8737C27.53 13.0116 21.376 11.1089 21.376 9.26564C21.376 7.42241 27.53 5.47512 41.503 4.65756C62.8639 3.26027 92.8018 4.79135 92.8018 9.26564Z" fill="#E4E5E6"/>
<path opacity="0.5238" d="M90.6605 9.2655C90.6605 13.383 62.9524 14.7654 42.9145 13.5614C29.5956 12.7736 23.501 10.9898 23.501 9.2655C23.501 7.52632 29.5956 5.7128 42.9145 4.96956C62.9524 3.70606 90.6605 5.14796 90.6605 9.2655Z" fill="#E1E2E3"/>
<path opacity="0.5714" d="M88.5201 9.26554C88.5201 13.0412 63.0268 14.3196 44.3268 13.2642C31.6619 12.5507 25.6416 10.9007 25.6416 9.26554C25.6416 7.63041 31.6768 5.95069 44.3268 5.26691C63.0268 4.13719 88.5201 5.48989 88.5201 9.26554Z" fill="#DFE0E1"/>
<path opacity="0.619" d="M86.3954 9.26528C86.3954 12.699 63.1319 13.8882 45.7548 12.9518C33.7589 12.3126 27.7832 10.7964 27.7832 9.26528C27.7832 7.74908 33.7589 6.1734 45.7548 5.57881C63.117 4.568 86.3954 5.83152 86.3954 9.26528Z" fill="#DCDDDE"/>
<path opacity="0.6667" d="M84.2542 9.26561C84.2542 12.3426 63.2204 13.4426 47.1664 12.6399C35.8245 12.0602 29.9082 10.6778 29.9082 9.26561C29.9082 7.85346 35.8096 6.41159 47.1664 5.89133C63.2056 4.99944 84.2542 6.17374 84.2542 9.26561Z" fill="#D9DADC"/>
<path opacity="0.7143" d="M82.1128 9.26554C82.1128 12.0007 63.2938 13.0115 48.5776 12.3277C37.8897 11.8371 32.0479 10.5736 32.0479 9.26554C32.0479 7.95744 37.8897 6.64934 48.5776 6.2034C63.2938 5.4453 82.1128 6.51556 82.1128 9.26554Z" fill="#D7D8D9"/>
<path opacity="0.7619" d="M79.9733 9.26562C79.9733 11.6588 63.3841 12.5805 50.0057 12.0156C39.9719 11.5994 34.1895 10.4548 34.1895 9.26562C34.1895 8.06157 39.9719 6.88725 50.0057 6.51563C63.3841 5.87644 79.9733 6.87239 79.9733 9.26562Z" fill="#D4D5D7"/>
<path opacity="0.8095" d="M77.8475 9.26545C77.8475 11.3168 63.488 12.1492 51.4326 11.7032C42.0677 11.3614 36.3447 10.3506 36.3447 9.26545C36.3447 8.16546 42.0677 7.12491 51.4326 6.82761C63.4732 6.30734 77.8475 7.21412 77.8475 9.26545Z" fill="#D1D3D4"/>
<path opacity="0.8571" d="M75.7072 9.26546C75.7072 10.96 63.5626 11.733 52.845 11.406C44.1342 11.1384 38.4707 10.2614 38.4707 9.26546C38.4707 8.28439 44.1193 7.34791 52.845 7.12493C63.5626 6.75332 75.7072 7.55602 75.7072 9.26546Z" fill="#CED0D2"/>
<path opacity="0.9048" d="M73.5668 9.26539C73.5668 10.6181 63.6519 11.3019 54.2573 11.0938C46.2005 10.9154 40.6113 10.1424 40.6113 9.26539C40.6113 8.38837 46.2005 7.58565 54.2573 7.43701C63.6519 7.18431 73.5668 7.89783 73.5668 9.26539Z" fill="#CCCDCF"/>
<path opacity="0.9524" d="M71.4255 9.26551C71.4255 10.2763 63.7404 10.8858 55.6688 10.7817C48.266 10.6925 42.7363 10.0385 42.7363 9.26551C42.7363 8.49255 48.266 7.82365 55.6688 7.74933C63.7404 7.61554 71.4255 8.25471 71.4255 9.26551Z" fill="#C9CBCD"/>
<path d="M57.082 10.4694C63.8221 10.4694 69.286 9.9303 69.286 9.26532C69.286 8.60035 63.8221 8.06128 57.082 8.06128C50.3419 8.06128 44.8779 8.60035 44.8779 9.26532C44.8779 9.9303 50.3419 10.4694 57.082 10.4694Z" fill="#BFBFBF"/>
</svg>
