<?xml version="1.0" encoding="UTF-8" standalone="no"?>
<svg
   width="249.99931"
   height="70.117096"
   viewBox="0 0 249.99931 70.117094"
   fill="none"
   version="1.1"
   id="svg831"
   sodipodi:docname="insureco-logo-horizontal.svg"
   inkscape:version="1.1.1 (c3084ef, 2021-09-22)"
   xmlns:inkscape="http://www.inkscape.org/namespaces/inkscape"
   xmlns:sodipodi="http://sodipodi.sourceforge.net/DTD/sodipodi-0.dtd"
   xmlns:xlink="http://www.w3.org/1999/xlink"
   xmlns="http://www.w3.org/2000/svg"
   xmlns:svg="http://www.w3.org/2000/svg"
   xmlns:rdf="http://www.w3.org/1999/02/22-rdf-syntax-ns#"
   xmlns:cc="http://creativecommons.org/ns#"
   xmlns:dc="http://purl.org/dc/elements/1.1/">
  <sodipodi:namedview
     id="namedview833"
     pagecolor="#ffffff"
     bordercolor="#666666"
     borderopacity="1.0"
     inkscape:pageshadow="2"
     inkscape:pageopacity="0.0"
     inkscape:pagecheckerboard="0"
     showgrid="false"
     fit-margin-top="0"
     fit-margin-left="0"
     fit-margin-right="0"
     fit-margin-bottom="0"
     inkscape:zoom="4.4474708"
     inkscape:cx="140.64173"
     inkscape:cy="108.8259"
     inkscape:window-width="2048"
     inkscape:window-height="1280"
     inkscape:window-x="0"
     inkscape:window-y="0"
     inkscape:window-maximized="0"
     inkscape:current-layer="svg831"
     lock-margins="true"
     width="536.29736px" />
  <defs
     id="defs731">
    <style
       id="style697">.cls-1{fill:#334047;}.cls-2{fill:#83a3b3;}.cls-3{fill:url(#linear-gradient);}.cls-4{fill:url(#linear-gradient-2);}.cls-5{fill:url(#linear-gradient-3);}.cls-6{fill:url(#linear-gradient-4);}.cls-7{fill:url(#linear-gradient-5);}.cls-8{fill:url(#linear-gradient-6);}.cls-9{fill:url(#linear-gradient-7);}.cls-10{fill:url(#linear-gradient-8);}.cls-11{fill:url(#linear-gradient-9);}.cls-12{fill:url(#linear-gradient-10);}.cls-13{fill:url(#linear-gradient-11);}.cls-14{fill:url(#linear-gradient-12);}.cls-15{fill:url(#linear-gradient-13);}.cls-16{fill:url(#linear-gradient-14);}.cls-17{fill:url(#linear-gradient-15);}.cls-18{fill:url(#linear-gradient-16);}.cls-19{fill:url(#linear-gradient-17);}.cls-20{fill:url(#linear-gradient-18);}.cls-21{fill:url(#linear-gradient-19);}.cls-22{fill:url(#linear-gradient-20);}</style>
    <linearGradient
       id="linear-gradient"
       x1="4.9299998"
       y1="368.35999"
       x2="132.47"
       y2="480.95999"
       gradientUnits="userSpaceOnUse">
      <stop
         offset="0"
         stop-color="#2e3192"
         id="stop699" />
      <stop
         offset="0.5"
         stop-color="#ec008c"
         id="stop701" />
      <stop
         offset="0.9"
         stop-color="#ffcb05"
         id="stop703" />
    </linearGradient>
    <linearGradient
       id="linear-gradient-2"
       x1="4.2199998"
       y1="369.17001"
       x2="131.75999"
       y2="481.76001"
       xlink:href="#linear-gradient"
       gradientTransform="matrix(0.44224383,0,0,0.44224383,-12.065552,-140.72849)" />
    <linearGradient
       id="linear-gradient-3"
       x1="-1.1900001"
       y1="375.29999"
       x2="126.35"
       y2="487.89001"
       xlink:href="#linear-gradient"
       gradientTransform="matrix(0.44224383,0,0,0.44224383,-12.065552,-140.72849)" />
    <linearGradient
       id="linear-gradient-4"
       x1="60.810001"
       y1="305.06"
       x2="188.35001"
       y2="417.66"
       xlink:href="#linear-gradient"
       gradientTransform="matrix(0.44224383,0,0,0.44224383,-12.065552,-140.72849)" />
    <linearGradient
       id="linear-gradient-5"
       x1="63.009998"
       y1="302.57999"
       x2="190.55"
       y2="415.17001"
       xlink:href="#linear-gradient"
       gradientTransform="matrix(0.44224383,0,0,0.44224383,-12.065552,-140.72849)" />
    <linearGradient
       id="linear-gradient-6"
       x1="37.830002"
       y1="331.09"
       x2="165.37"
       y2="443.69"
       xlink:href="#linear-gradient"
       gradientTransform="matrix(0.44224383,0,0,0.44224383,-12.065552,-140.72849)" />
    <linearGradient
       id="linear-gradient-7"
       x1="28.959999"
       y1="341.14999"
       x2="156.5"
       y2="453.73999"
       xlink:href="#linear-gradient"
       gradientTransform="matrix(0.44224383,0,0,0.44224383,-12.065552,-140.72849)" />
    <linearGradient
       id="linear-gradient-8"
       x1="32.790001"
       y1="336.81"
       x2="160.33"
       y2="449.39999"
       xlink:href="#linear-gradient"
       gradientTransform="matrix(0.44224383,0,0,0.44224383,-12.065552,-140.72849)" />
    <linearGradient
       id="linear-gradient-9"
       x1="67.07"
       y1="297.98001"
       x2="194.61"
       y2="410.57001"
       xlink:href="#linear-gradient"
       gradientTransform="matrix(0.44224383,0,0,0.44224383,-12.065552,-140.72849)" />
    <linearGradient
       id="linear-gradient-10"
       x1="6.7399998"
       y1="366.32001"
       x2="134.28"
       y2="478.91"
       xlink:href="#linear-gradient"
       gradientTransform="matrix(0.44224383,0,0,0.44224383,-12.065552,-140.72849)" />
    <linearGradient
       id="linear-gradient-11"
       x1="34.990002"
       y1="334.32001"
       x2="162.53"
       y2="446.91"
       xlink:href="#linear-gradient"
       gradientTransform="matrix(0.44224383,0,0,0.44224383,-12.065552,-140.72849)" />
    <linearGradient
       id="linear-gradient-12"
       x1="62.82"
       y1="302.79001"
       x2="190.36"
       y2="415.39001"
       gradientUnits="userSpaceOnUse"
       gradientTransform="matrix(0.44224383,0,0,0.44224383,-12.065552,-140.72849)">
      <stop
         offset="0"
         stop-color="#2e3192"
         id="stop716" />
      <stop
         offset="0.5"
         stop-color="#ec008c"
         id="stop718" />
      <stop
         offset="0.9"
         stop-color="#fd0"
         id="stop720" />
    </linearGradient>
    <linearGradient
       id="linear-gradient-13"
       x1="80.589996"
       y1="282.67001"
       x2="208.13"
       y2="395.26001"
       xlink:href="#linear-gradient"
       gradientTransform="matrix(0.44224383,0,0,0.44224383,-12.065552,-140.72849)" />
    <linearGradient
       id="linear-gradient-14"
       x1="65.75"
       y1="299.47"
       x2="193.28999"
       y2="412.06"
       xlink:href="#linear-gradient"
       gradientTransform="matrix(0.44224383,0,0,0.44224383,-12.065552,-140.72849)" />
    <linearGradient
       id="linear-gradient-15"
       x1="52.139999"
       y1="314.89001"
       x2="179.67999"
       y2="427.48001"
       xlink:href="#linear-gradient"
       gradientTransform="matrix(0.44224383,0,0,0.44224383,-12.065552,-140.72849)" />
    <linearGradient
       id="linear-gradient-16"
       x1="32.02"
       y1="337.67999"
       x2="159.55"
       y2="450.28"
       xlink:href="#linear-gradient"
       gradientTransform="matrix(0.44224383,0,0,0.44224383,-12.065552,-140.72849)" />
    <linearGradient
       id="linear-gradient-17"
       x1="6.4299998"
       y1="366.67001"
       x2="133.97"
       y2="479.26001"
       xlink:href="#linear-gradient"
       gradientTransform="matrix(0.44224383,0,0,0.44224383,-12.065552,-140.72849)" />
    <linearGradient
       id="linear-gradient-18"
       x1="29.540001"
       y1="340.48999"
       x2="157.08"
       y2="453.09"
       xlink:href="#linear-gradient"
       gradientTransform="matrix(0.44224383,0,0,0.44224383,-12.065552,-140.72849)" />
    <linearGradient
       id="linear-gradient-19"
       x1="34.919998"
       y1="334.39999"
       x2="162.45"
       y2="447"
       xlink:href="#linear-gradient"
       gradientTransform="matrix(0.44224383,0,0,0.44224383,-12.065552,-140.72849)" />
    <linearGradient
       id="linear-gradient-20"
       x1="51.77"
       y1="335.84"
       x2="160.53999"
       y2="453.64999"
       xlink:href="#linear-gradient"
       gradientTransform="matrix(0.44224383,0,0,0.44224383,-12.065552,-140.72849)" />
    <linearGradient
       inkscape:collect="always"
       xlink:href="#linear-gradient"
       id="linearGradient917"
       gradientUnits="userSpaceOnUse"
       x1="4.9299998"
       y1="368.35999"
       x2="132.47"
       y2="480.95999"
       gradientTransform="matrix(0.44224383,0,0,0.44224383,-12.065552,-140.72849)" />
  </defs>
  <title
     id="title733">insureco-logo-horizontal</title>
  <path
     class="cls-1"
     d="m 82.534837,14.74233 c 1.061378,0 1.547853,0.574917 1.547853,1.547854 v 2.427918 c 0,1.017162 -0.486475,1.547854 -1.547853,1.547854 h -2.472145 c -1.017162,0 -1.547854,-0.530692 -1.547854,-1.547854 V 16.290184 A 1.3974906,1.3974906 0 0 1 80.062692,14.74233 Z M 78.647498,45.801124 V 24.131168 h 5.342323 v 21.669956 z"
     id="path735"
     style="stroke-width:0.442243" />
  <path
     class="cls-1"
     d="m 110.36524,29.535387 v 16.256885 h -5.39096 V 31.180533 c 0,-2.427917 -0.57492,-3.095706 -2.29523,-3.095706 -2.167,0 -4.108466,0.972937 -7.155521,2.653463 l 0.04435,15.062834 H 90.17682 V 24.131168 h 4.506474 l 0.353801,3.223958 c 3.095706,-2.383697 6.191415,-3.843101 9.366725,-3.843101 3.82098,0.0221 5.96144,2.144883 5.96144,6.023362 z"
     id="path737"
     style="stroke-width:0.442243" />
  <path
     class="cls-1"
     d="m 133.55651,24.330177 -0.39801,3.710426 c -2.73751,-0.08845 -5.52363,-0.176899 -8.26113,-0.176899 -3.62196,0 -4.5949,0.04421 -4.5949,1.853002 0,1.724753 0.92871,1.768976 2.95861,2.343894 l 5.83318,1.592077 c 3.57776,1.017161 5.16983,2.427919 5.16983,6.226794 0,5.306928 -2.91438,6.408106 -9.67628,6.408106 a 56.284371,56.284371 0 0 1 -9.05716,-0.707595 l 0.35381,-3.754639 c 1.72475,0.132674 4.59491,0.176898 7.37662,0.176898 4.59491,0 5.83318,-0.353796 5.83318,-2.078547 0,-1.636301 -1.14984,-1.768974 -3.17975,-2.339469 L 120.214,36.036371 c -3.8431,-1.105608 -5.08137,-2.914387 -5.08137,-6.363888 0,-4.77181 2.47658,-6.142768 8.84489,-6.142768 a 73.173659,73.173659 0 0 1 9.57899,0.800462 z"
     id="path739"
     style="stroke-width:0.442243" />
  <path
     class="cls-1"
     d="m 158.64057,45.801124 h -4.2411 l -0.39802,-2.914395 c -3.09571,2.343882 -5.96589,3.489312 -9.05717,3.489312 -3.93155,0 -6.01008,-2.034327 -6.01008,-6.005679 V 24.15328 h 5.39094 v 14.625003 c -0.0444,2.295246 0.61914,3.04706 2.65348,3.04706 1.85741,0 3.62197,-0.796038 6.31966,-2.343893 V 24.15328 h 5.34229 z"
     id="path741"
     style="stroke-width:0.442243" />
  <path
     class="cls-1"
     d="m 178.74499,28.571294 h -1.53018 c -2.07411,0 -4.06421,0.707591 -7.1555,1.901649 v 15.328181 h -5.40862 V 24.131168 h 4.19688 l 0.48646,3.179732 c 2.95862,-2.427918 6.09855,-3.798875 8.92449,-3.798875 h 1.06139 z"
     id="path743"
     style="stroke-width:0.442243" />
  <path
     class="cls-1"
     d="m 202.99762,45.53577 c -4.01999,0.353793 -8.96869,0.353793 -13.43093,0.353793 -4.01998,0 -6.49214,-2.211217 -6.53637,-5.78897 V 21.01777 c 0.0444,-3.577752 2.56059,-5.788972 6.53637,-5.788972 4.46224,0 9.41094,0 13.43093,0.353796 l -0.26533,4.241117 h -11.94058 c -1.59208,0 -2.21123,0.663367 -2.21123,2.560592 v 5.346729 h 12.51551 v 4.241119 h -12.50223 v 6.806132 c 0,1.897226 0.61914,2.560592 2.21121,2.560592 h 11.94058 z"
     id="path745"
     style="stroke-width:0.442243" />
  <path
     class="cls-1"
     d="m 225.12752,24.772421 -0.61914,3.356631 c -2.16259,-0.08845 -4.42244,-0.08845 -6.00567,-0.08845 -4.42244,0 -5.92164,1.503629 -5.92164,6.89016 0,5.386529 1.50362,6.987452 5.92164,6.987452 a 49.575551,49.575551 0 0 0 6.47445,-0.442244 l 0.48647,3.53795 c -2.25545,0.928715 -5.21406,1.326729 -7.9604,1.326729 -7.73044,0 -10.56077,-3.002832 -10.56077,-11.396621 0,-8.393787 2.87015,-11.396624 10.61385,-11.396624 2.13604,-0.01327 5.31576,0.296303 7.57121,1.225016 z"
     id="path747"
     style="stroke-width:0.442243" />
  <path
     class="cls-1"
     d="m 249.99931,34.979409 c 0,8.305339 -2.87015,11.396632 -10.6448,11.396632 -7.77465,0 -10.73769,-3.095715 -10.73769,-11.396632 0,-8.300917 2.91439,-11.440848 10.73769,-11.440848 7.82329,0 10.6448,3.135508 10.6448,11.440848 z m -15.7704,0 c 0,5.56785 1.14982,7.111281 5.1256,7.111281 3.8873,0 5.08138,-1.547853 5.08138,-7.111281 0,-5.563428 -1.19408,-7.155507 -5.08138,-7.155507 -3.98021,-0.0044 -5.13003,1.543432 -5.13003,7.155507 z"
     id="path749"
     style="stroke-width:0.442243" />
  <path
     class="cls-2"
     d="m 89.208293,61.982813 a 0.5970291,0.5970291 0 0 1 -0.614717,0.442257 h -1.450558 a 0.6235638,0.6235638 0 0 1 -0.614726,-0.517439 l -1.180799,-5.346723 c -0.08402,-0.442235 -0.150364,-0.884493 -0.247659,-1.300198 h -0.199007 c -0.08401,0.44224 -0.181307,0.884502 -0.265328,1.300198 l -1.176373,5.355576 a 0.62798642,0.62798642 0 0 1 -0.632422,0.517421 H 81.39385 A 0.57933946,0.57933946 0 0 1 80.792395,61.991666 L 78.514838,54.301048 H 80.1821 l 1.565534,5.864145 a 11.113588,11.113588 0 0 1 0.247669,1.251555 h 0.216702 c 0.101708,-0.415714 0.199007,-0.831424 0.283032,-1.251555 l 1.198483,-5.36441 a 0.59260674,0.59260674 0 0 1 0.601446,-0.499735 h 1.450559 a 0.60587398,0.60587398 0 0 1 0.601439,0.517426 l 1.180798,5.346719 c 0.08404,0.415713 0.181326,0.818149 0.283047,1.251555 h 0.216689 a 11.056098,11.056098 0 0 1 0.247654,-1.251555 l 1.565558,-5.864145 h 1.667251 z"
     id="path751"
     style="stroke-width:0.442243" />
  <path
     class="cls-2"
     d="m 100.39705,56.335362 v 6.098543 h -1.614172 v -5.629768 c 0,-1.034835 -0.265355,-1.348846 -1.034866,-1.348846 -0.884475,0 -1.768968,0.415727 -2.998407,1.198481 v 5.780133 H 93.135423 V 50.763089 h 1.614182 v 3.14878 a 8.8669889,8.8669889 0 0 1 -0.114977,1.583243 c 1.180791,-0.884501 2.348316,-1.415198 3.537937,-1.415198 1.441724,0.0089 2.224485,0.791634 2.224485,2.255448 z"
     id="path753"
     style="stroke-width:0.442243" />
  <path
     class="cls-2"
     d="m 109.43654,61.085059 0.15036,1.065814 a 9.5701559,9.5701559 0 0 1 -3.21513,0.482039 c -2.83035,0 -3.91384,-1.149834 -3.91384,-4.280922 0,-3.215106 1.13214,-4.263228 3.76348,-4.263228 2.53407,0 3.5645,0.950824 3.5645,2.733079 0,1.463819 -0.61473,2.330607 -1.98126,2.330607 h -3.64851 c 0.16804,1.768995 0.88448,2.131618 2.43234,2.131618 a 28.427435,28.427435 0 0 0 2.84806,-0.199007 z m -5.30693,-3.184148 h 3.25049 c 0.68105,0 0.80046,-0.583761 0.80046,-1.083496 0,-0.981788 -0.48205,-1.366532 -1.86627,-1.366532 -1.59209,0.0044 -2.12278,0.521856 -2.18912,2.454441 z"
     id="path755"
     style="stroke-width:0.442243" />
  <path
     class="cls-2"
     d="m 116.84853,55.605655 h -0.49973 c -0.8845,0 -1.66726,0.349371 -2.91438,0.933136 v 5.895114 h -1.61421 v -8.132857 h 1.24713 l 0.16807,1.251537 c 1.14984,-0.915435 2.3306,-1.463823 3.41412,-1.463823 h 0.38476 z"
     id="path757"
     style="stroke-width:0.442243" />
  <path
     class="cls-2"
     d="m 124.97255,61.085059 0.15037,1.065814 a 9.5701559,9.5701559 0 0 1 -3.21511,0.482039 c -2.83036,0 -3.91387,-1.149834 -3.91387,-4.280922 0,-3.215106 1.13215,-4.263228 3.76352,-4.263228 2.53402,0 3.56447,0.950824 3.56447,2.733079 0,1.463819 -0.61471,2.330607 -1.98127,2.330607 h -3.64851 c 0.16808,1.768995 0.88451,2.131618 2.43235,2.131618 a 28.427435,28.427435 0 0 0 2.84805,-0.199007 z m -5.30694,-3.184148 h 3.25049 c 0.68107,0 0.80047,-0.583761 0.80047,-1.083496 0,-0.981788 -0.48202,-1.366532 -1.86626,-1.366532 -1.58766,0.0044 -2.12719,0.521856 -2.1891,2.454441 z"
     id="path759"
     style="stroke-width:0.442243" />
  <path
     class="cls-2"
     d="m 132.30054,50.842701 a 0.44224383,0.44224383 0 0 1 0.46876,0.464345 v 0.933135 c 0,0.318415 -0.15036,0.482062 -0.46876,0.482062 h -0.7695 c -0.31843,0 -0.46439,-0.168073 -0.46439,-0.482062 v -0.933135 a 0.44224383,0.44224383 0 0 1 0.46439,-0.464345 z m -1.18081,11.591204 v -8.132857 h 1.60093 v 8.128431 z"
     id="path761"
     style="stroke-width:0.442243" />
  <path
     class="cls-2"
     d="m 142.5429,56.335362 v 6.098543 h -1.61419 v -5.629768 c 0,-1.034835 -0.26536,-1.348846 -1.03485,-1.348846 -0.91544,0 -1.76897,0.464374 -3.0161,1.21619 v 5.749168 h -1.6142 v -8.119601 h 1.36655 l 0.10172,1.233851 c 1.19848,-0.884466 2.39696,-1.450563 3.59986,-1.450563 1.44614,0.0044 2.21121,0.787212 2.21121,2.251026 z"
     id="path763"
     style="stroke-width:0.442243" />
  <path
     class="cls-2"
     d="m 151.2153,54.371812 -0.13267,1.167508 c -1.01716,-0.03548 -2.06528,-0.08403 -3.09571,-0.08403 -1.45055,0 -1.89723,0 -1.89723,0.884493 0,0.782785 0.38476,0.849106 1.14984,1.065804 l 2.29967,0.566088 c 1.32673,0.349371 1.89722,0.884475 1.89722,2.281963 0,1.998942 -1.10118,2.348313 -3.53795,2.348313 a 21.94414,21.94414 0 0 1 -3.23281,-0.234377 l 0.11501,-1.198477 c 0.74738,0.06633 1.73358,0.08401 2.78169,0.08401 1.76899,0 2.29968,-0.168052 2.29968,-0.999472 0,-0.751811 -0.46878,-0.831401 -1.23386,-1.034839 l -2.2643,-0.566086 c -1.34884,-0.349372 -1.84858,-0.981767 -1.84858,-2.317352 0,-1.848577 0.95083,-2.281982 3.21512,-2.264273 a 26.034895,26.034895 0 0 1 3.48488,0.300723 z"
     id="path765"
     style="stroke-width:0.442243" />
  <path
     class="cls-2"
     d="m 160.49359,62.433905 h -1.28252 l -0.11498,-1.114443 c -1.19847,0.884471 -2.29967,1.326733 -3.46278,1.326733 -1.45056,0 -2.2112,-0.765098 -2.2112,-2.246599 v -6.098548 h 1.61418 v 5.629759 c 0,0.999471 0.30073,1.326725 1.16753,1.326725 0.8668,0 1.56554,-0.384731 2.69769,-1.083473 v -5.873011 h 1.60092 z"
     id="path767"
     style="stroke-width:0.442243" />
  <path
     class="cls-2"
     d="m 168.02058,55.605655 h -0.49974 c -0.8845,0 -1.66726,0.349371 -2.9144,0.933136 v 5.895114 h -1.61418 v -8.132857 h 1.24712 l 0.16805,1.251537 c 1.14983,-0.915435 2.33063,-1.463823 3.41414,-1.463823 h 0.38473 z"
     id="path769"
     style="stroke-width:0.442243" />
  <path
     class="cls-2"
     d="m 176.46299,56.768772 v 5.665133 h -1.26479 l -0.18133,-1.282507 a 4.6789394,4.6789394 0 0 1 -3.25049,1.432871 c -1.48152,0 -2.481,-0.81815 -2.481,-2.299673 v -0.849101 c 0,-1.300199 0.83142,-2.029907 2.29967,-2.029907 h 3.26377 v -0.63239 c 0,-0.999465 -0.36707,-1.326732 -1.6142,-1.326732 -0.80046,0 -2.18026,0.09729 -3.4495,0.199011 l -0.15037,-1.180809 a 26.64077,26.64077 0 0 1 3.94924,-0.384754 c 1.86186,0.0089 2.879,0.663378 2.879,2.688858 z m -5.54572,3.316817 c 0,0.800464 0.36706,1.132152 1.1808,1.132152 a 4.3428347,4.3428347 0 0 0 2.74633,-1.149834 v -1.450563 h -2.96304 c -0.7474,0.03548 -0.96409,0.415706 -0.96409,1.034848 z"
     id="path771"
     style="stroke-width:0.442243" />
  <path
     class="cls-2"
     d="m 186.15256,56.335362 v 6.098543 h -1.61419 v -5.629768 c 0,-1.034835 -0.26533,-1.348846 -1.03485,-1.348846 -0.91544,0 -1.76896,0.464374 -3.01611,1.21619 v 5.749168 h -1.61416 v -8.119601 h 1.36651 l 0.10172,1.233851 c 1.19848,-0.884466 2.39696,-1.450563 3.59986,-1.450563 1.44614,0.0044 2.21122,0.787212 2.21122,2.251026 z"
     id="path773"
     style="stroke-width:0.442243" />
  <path
     class="cls-2"
     d="m 194.79402,54.504468 -0.21672,1.034852 c -0.75181,-0.04864 -1.63186,-0.08403 -2.21121,-0.08403 -1.84857,0 -2.48097,0.650099 -2.48097,2.914403 0,2.264273 0.6324,2.914372 2.48097,2.914372 a 15.664276,15.664276 0 0 0 2.39696,-0.181315 l 0.15036,1.0835 a 8.6237552,8.6237552 0 0 1 -2.83035,0.44224 c -2.84804,0 -3.88291,-1.13213 -3.88291,-4.263227 0,-3.131093 1.04813,-4.280928 3.88291,-4.280928 a 8.243426,8.243426 0 0 1 2.71096,0.420133 z"
     id="path775"
     style="stroke-width:0.442243" />
  <path
     class="cls-2"
     d="m 203.24087,61.085059 0.15037,1.065814 a 9.5657347,9.5657347 0 0 1 -3.21512,0.482039 c -2.83035,0 -3.91386,-1.149834 -3.91386,-4.280922 0,-3.215106 1.13215,-4.263228 3.76349,-4.263228 2.53407,0 3.5645,0.950824 3.5645,2.733079 0,1.463819 -0.61474,2.330607 -1.98125,2.330607 h -3.65294 c 0.16805,1.768995 0.88448,2.131618 2.43234,2.131618 a 28.445125,28.445125 0 0 0 2.85247,-0.199007 z m -5.30691,-3.184148 h 3.24606 c 0.68105,0 0.80045,-0.583761 0.80045,-1.083496 0,-0.981788 -0.48205,-1.366532 -1.86626,-1.366532 -1.58767,0.0044 -2.11393,0.521856 -2.18912,2.454441 z"
     id="path777"
     style="stroke-width:0.442243" />
  <path
     class="cls-2"
     d="m 215.51314,54.504468 -0.21671,1.034852 c -0.75181,-0.04864 -1.63187,-0.08403 -2.21121,-0.08403 -1.84858,0 -2.48099,0.650099 -2.48099,2.914403 0,2.264273 0.63241,2.914372 2.48099,2.914372 a 15.664276,15.664276 0 0 0 2.39697,-0.181315 l 0.15036,1.0835 a 8.6237552,8.6237552 0 0 1 -2.83037,0.44224 c -2.84805,0 -3.88289,-1.13213 -3.88289,-4.263227 0,-3.131093 1.04811,-4.280928 3.88289,-4.280928 a 8.2478468,8.2478468 0 0 1 2.71096,0.420133 z"
     id="path779"
     style="stroke-width:0.442243" />
  <path
     class="cls-2"
     d="m 219.10416,60.085589 a 0.93313456,0.93313456 0 0 0 1.06579,1.034862 h 0.75182 l 0.18133,1.251554 a 5.1256055,5.1256055 0 0 1 -1.54785,0.216682 c -1.25155,0 -2.04759,-0.751807 -2.04759,-2.131614 v -9.693984 h 1.61418 z"
     id="path781"
     style="stroke-width:0.442243" />
  <path
     class="cls-2"
     d="m 223.76982,50.842701 a 0.44224383,0.44224383 0 0 1 0.46437,0.464345 v 0.933135 c 0,0.318415 -0.15037,0.482062 -0.46437,0.482062 h -0.76506 c -0.314,0 -0.46436,-0.168073 -0.46436,-0.482062 v -0.933135 a 0.44224383,0.44224383 0 0 1 0.46436,-0.464345 z m -1.18077,11.591204 v -8.132857 h 1.60091 v 8.128431 z"
     id="path783"
     style="stroke-width:0.442243" />
  <path
     class="cls-2"
     d="m 232.93754,54.504468 -0.2167,1.034852 c -0.75182,-0.04864 -1.63188,-0.08403 -2.2112,-0.08403 -1.84859,0 -2.481,0.650099 -2.481,2.914403 0,2.264273 0.63241,2.914372 2.481,2.914372 a 15.664276,15.664276 0 0 0 2.39695,-0.181315 l 0.15037,1.0835 a 8.6237552,8.6237552 0 0 1 -2.83036,0.44224 c -2.84807,0 -3.88292,-1.13213 -3.88292,-4.263227 0,-3.131093 1.04812,-4.280928 3.88292,-4.280928 a 8.2478468,8.2478468 0 0 1 2.71094,0.420133 z"
     id="path785"
     style="stroke-width:0.442243" />
  <path
     class="cls-2"
     d="m 236.4755,58.436024 a 11.321441,11.321441 0 0 1 0.084,1.264821 v 2.73306 h -1.61422 V 50.763089 h 1.61422 v 5.112351 a 9.1102225,9.1102225 0 0 1 -0.10172,1.384211 h 1.01716 l 2.43235,-2.96302 h 1.87512 l -2.45004,2.949764 a 3.3698981,3.3698981 0 0 1 -0.59704,0.601456 v 0.03548 a 3.2991391,3.2991391 0 0 1 0.59704,0.698746 l 2.71536,3.847521 h -1.86625 l -2.69769,-3.980172 z"
     id="path787"
     style="stroke-width:0.442243" />
  <path
     class="cls-2"
     d="m 249.7428,54.371812 -0.13265,1.167508 c -1.01718,-0.03548 -2.0653,-0.08403 -3.09573,-0.08403 -1.45056,0 -1.89722,0 -1.89722,0.884493 0,0.782785 0.38476,0.849106 1.14982,1.065804 l 2.29968,0.566088 c 1.32672,0.349371 1.89721,0.884475 1.89721,2.281963 0,1.998942 -1.10118,2.348313 -3.53793,2.348313 a 21.939717,21.939717 0 0 1 -3.23281,-0.234377 l 0.11501,-1.198477 c 0.75181,0.06633 1.73357,0.08401 2.78168,0.08401 1.76901,0 2.29967,-0.168052 2.29967,-0.999472 0,-0.751811 -0.46434,-0.831401 -1.23383,-1.034839 l -2.26431,-0.566086 c -1.34885,-0.349372 -1.84859,-0.981767 -1.84859,-2.317352 0,-1.848577 0.95083,-2.281982 3.21514,-2.264273 a 26.02605,26.02605 0 0 1 3.48486,0.300723 z"
     id="path789"
     style="stroke-width:0.442243" />
  <path
     class="cls-3"
     d="m 31.685633,66.772332 4.953131,-9.287135 a 3.095707,3.095707 0 0 0 1.225015,-0.256507 l 8.292068,6.509831 z"
     id="path791"
     style="fill:url(#linearGradient917);stroke-width:0.442243" />
  <path
     class="cls-4"
     d="M 14.526571,51.996962 20.797589,40.189041 26.387552,64.543415 14.853831,53.929551 a 2.803826,2.803826 0 0 0 -0.32726,-1.923763 z"
     id="path793"
     style="fill:url(#linear-gradient-2);stroke-width:0.442243" />
  <path
     class="cls-5"
     d="M 5.1112005,34.944029 9.4673009,49.692867 3.6517957,45.522514 a 2.4765657,2.4765657 0 0 0 -0.5970291,-1.5744 z"
     id="path795"
     style="fill:url(#linear-gradient-3);stroke-width:0.442243" />
  <path
     class="cls-6"
     d="M 61.21868,26.023969 59.661984,42.891151 48.132679,29.181592 a 3.3831654,3.3831654 0 0 0 0.21229,-0.627987 l 12.475697,-2.901119 a 2.8613176,2.8613176 0 0 0 0.398014,0.371483 z"
     id="path797"
     style="fill:url(#linear-gradient-4);stroke-width:0.442243" />
  <path
     class="cls-7"
     d="m 43.957899,24.529186 a 3.4052775,3.4052775 0 0 0 -0.623562,0.274193 L 27.294151,13.614609 45.797646,9.2319722 a 2.8347831,2.8347831 0 0 0 0.238802,0.2122779 z"
     id="path799"
     style="fill:url(#linear-gradient-5);stroke-width:0.442243" />
  <path
     class="cls-8"
     d="m 41.640541,27.222452 c 0,0.0354 0,0.07518 0,0.110562 l -18.224867,5.961444 a 3.3964327,3.3964327 0 0 0 -0.371486,-0.260922 l 1.883959,-17.247509 0.221121,-0.101717 z"
     id="path801"
     style="fill:url(#linear-gradient-6);stroke-width:0.442243" />
  <path
     class="cls-9"
     d="M 19.209934,33.232546 7.7381293,28.650899 21.889931,16.498039 20.120957,32.759344 a 3.3698981,3.3698981 0 0 0 -0.911023,0.473202 z"
     id="path803"
     style="fill:url(#linear-gradient-7);stroke-width:0.442243" />
  <path
     class="cls-10"
     d="m 24.693757,35.987725 17.853385,-5.846464 0.132673,0.132673 -6.633656,21.068498 h -0.03098 L 24.370921,37.411749 a 3.4008552,3.4008552 0 0 0 0.322836,-1.424024 z"
     id="path805"
     style="fill:url(#linear-gradient-8);stroke-width:0.442243" />
  <path
     class="cls-11"
     d="M 47.712539,25.674598 A 3.387588,3.387588 0 0 0 46.88555,24.918362 l 1.981259,-14.2889 11.153394,12.183819 z"
     id="path807"
     style="fill:url(#linear-gradient-9);stroke-width:0.442243" />
  <path
     class="cls-12"
     d="m 7.2118588,31.609511 10.6448092,4.26323 c 0,0.03097 0,0.06191 0,0.08845 a 3.4008552,3.4008552 0 0 0 0.725281,2.10508 l -6.080853,11.445273 z"
     id="path809"
     style="fill:url(#linear-gradient-10);stroke-width:0.442243" />
  <path
     class="cls-13"
     d="m 45.496918,31.167267 a 3.4273898,3.4273898 0 0 0 0.371479,-0.07518 l 12.223616,14.53214 -19.162426,6.377153 z"
     id="path811"
     style="fill:url(#linear-gradient-11);stroke-width:0.442243" />
  <path
     class="cls-14"
     d="m 67.825797,35.912543 -5.107911,6.076431 1.247129,-13.537085 3.931551,6.589434 a 2.1669947,2.1669947 0 0 0 -0.08404,0.605874 2.2112192,2.2112192 0 0 0 0.01331,0.265346 z"
     id="path813"
     style="fill:url(#linear-gradient-12);stroke-width:0.442243" />
  <path
     class="cls-15"
     d="m 53.386537,11.195534 5.917219,2.480988 a 2.1802621,2.1802621 0 0 0 0.79605,1.026007 l 0.654512,4.559534 z"
     id="path815"
     style="fill:url(#linear-gradient-13);stroke-width:0.442243" />
  <path
     class="cls-16"
     d="M 45.129847,6.3441195 26.409664,10.775402 29.792829,3.6995017 a 2.5031002,2.5031002 0 0 0 1.3798,-0.796039 l 11.202038,0.9817814 a 2.1669947,2.1669947 0 0 0 1.521319,0.8225745 l 1.255982,1.5964995 z"
     id="path817"
     style="fill:url(#linear-gradient-14);stroke-width:0.442243" />
  <path
     class="cls-17"
     d="m 23.605839,9.8201554 a 3.095707,3.095707 0 0 0 -2.2466,1.1409906 L 15.167826,9.7449751 26.170852,4.4380485 Z"
     id="path819"
     style="fill:url(#linear-gradient-15);stroke-width:0.442243" />
  <path
     class="cls-18"
     d="M 11.815618,12.084445 20.48802,13.787083 7.7867755,24.69724 11.501623,12.270188 a 2.1537275,2.1537275 0 0 0 0.313995,-0.185743 z"
     id="path821"
     style="fill:url(#linear-gradient-16);stroke-width:0.442243" />
  <path
     class="cls-19"
     d="m 33.737644,53.244087 a 3.095707,3.095707 0 0 0 0.296303,2.861303 L 29.452302,64.6805 24.198445,41.825343 Z"
     id="path823"
     style="fill:url(#linear-gradient-17);stroke-width:0.442243" />
  <path
     class="cls-20"
     d="m 39.676979,54.862687 17.902026,-5.9526 -8.23014,13.174442 a 2.441186,2.441186 0 0 0 -0.442261,0.0796 l -9.229625,-7.243938 z"
     id="path825"
     style="fill:url(#linear-gradient-18);stroke-width:0.442243" />
  <path
     class="cls-21"
     d="m 60.272283,50.197033 1.26039,3.980177 a 2.1493051,2.1493051 0 0 0 -0.252085,0.725281 l -6.797285,4.56839 z"
     id="path827"
     style="fill:url(#linear-gradient-19);stroke-width:0.442243" />
  <path
     class="cls-22"
     d="m 9.6043971,10.328737 a 0.92871199,0.92871199 0 0 0 0.2034328,0.579339 L 1.4892233,22.238364 a 0.93755696,0.93755696 0 0 0 -0.99947101,1.547853 0.92871199,0.92871199 0 0 0 0.40686434,0.234389 L 0.69318433,44.408044 A 1.2515503,1.2515503 0 0 0 1.6440088,46.716561 L 13.319245,60.342096 a 0.93313456,0.93313456 0 0 0 1.326732,1.28692 l 13.041773,6.885741 a 1.2382829,1.2382829 0 0 0 -0.05749,0.349371 1.2515503,1.2515503 0 1 0 2.503099,0 v 0 L 48.402462,65.05641 A 1.2525813,1.2525813 0 0 0 50.71097,64.083475 L 62.801902,55.959452 A 0.93755696,0.93755696 0 1 0 63.93848,54.477938 L 70.094514,36.580331 A 0.93755696,0.93755696 0 0 0 69.96185,34.714063 H 69.87339 L 61.882044,13.676522 A 0.93755696,0.93755696 0 1 0 60.683567,12.243653 L 44.983899,2.7796345 A 0.92871199,0.92871199 0 0 0 45.023819,2.5275555 0.93755696,0.93755696 0 0 0 43.20617,2.2047174 L 30.580023,1.130065 a 1.2471275,1.2471275 0 1 0 -2.445608,0.4422439 l -16.889293,8.14171 A 0.93755696,0.93755696 0 0 0 9.6043971,10.328737 Z M 29.337318,2.5275555 A 1.2471275,1.2471275 0 0 0 30.531376,1.6430678 L 43.157438,2.713298 a 0.93755696,0.93755696 0 0 0 1.286936,0.6943227 l 2.1891,2.7861356 a 1.5566983,1.5566983 0 0 0 -0.415706,1.0613859 c 0,0.039782 0,0.075181 0,0.1149835 L 25.525177,12.252497 a 1.8795362,1.8795362 0 0 0 -0.72528,-0.884487 l 4.24554,-8.8669891 a 1.2427051,1.2427051 0 0 0 0.287458,0.026533 z M 60.404947,12.924707 a 0.93755696,0.93755696 0 0 0 0.822568,0.928715 l 1.216181,8.455701 a 1.5566983,1.5566983 0 0 0 -0.393597,0.185742 L 49.003902,8.2103881 A 1.5522759,1.5522759 0 0 0 49.10561,8.0644489 l 11.308181,4.7408541 a 0.91986732,0.91986732 0 0 0 -0.0089,0.119404 z m 8.632601,22.726912 a 0.93313456,0.93313456 0 0 0 0.168051,0.530694 l -7.593317,9.030616 a 1.5522759,1.5522759 0 0 0 -0.41571,-0.172473 L 63.00977,25.365027 a 1.5566983,1.5566983 0 0 0 0.4732,-0.106139 l 5.815502,9.729366 a 0.93313456,0.93313456 0 0 0 -0.260924,0.663365 z m -6.500979,19.900966 -12.090943,8.124019 v 0 l 9.778009,-15.650989 a 1.5611207,1.5611207 0 0 0 0.610292,0.123826 h 0.07076 l 2.007788,6.341766 a 0.92871199,0.92871199 0 0 0 -0.375902,1.083518 z m -12.971018,7.761383 a 1.2427051,1.2427051 0 0 0 -0.809312,0.300728 l -10.516553,-8.2567 a 1.8574242,1.8574242 0 0 0 0.212278,-1.366523 L 59.31703,47.048249 a 1.5655432,1.5655432 0 0 0 0.442249,0.694321 l -9.778023,15.655441 a 1.2427051,1.2427051 0 0 0 -0.415705,-0.09731 z M 22.509074,14.326621 a 1.8706916,1.8706916 0 0 0 0.80046,0.442243 L 21.23099,33.78535 a 2.1846846,2.1846846 0 0 0 -1.724753,0.884488 L 6.4556212,29.446938 A 1.5478534,1.5478534 0 0 0 6.2610341,28.283836 Z m 39.089943,8.402632 0.02661,0.03097 0.08402,0.0221 a 1.5566983,1.5566983 0 0 0 -0.340527,1.326732 l -0.654525,-0.185739 -13.62554,3.166466 A 2.2112192,2.2112192 0 0 0 45.541206,25.665757 L 47.880665,8.80742 a 1.5566983,1.5566983 0 0 0 0.75182,-0.2520789 z m 0.919861,2.578282 -1.813203,19.706386 a 1.5522759,1.5522759 0 0 0 -0.698742,0.21669 L 46.606939,29.309842 a 2.1802621,2.1802621 0 0 0 0.588195,-1.54343 c 0,-0.07076 0,-0.141518 0,-0.212278 l 14.213714,-3.303561 a 1.5655432,1.5655432 0 0 0 1.11003,1.065806 z M 22.840757,37.495777 a 2.1846846,2.1846846 0 0 0 0.468777,-2.343894 l 19.719654,-6.456759 a 2.2112192,2.2112192 0 0 0 1.096765,1.087919 l -7.177618,22.749019 a 1.8441568,1.8441568 0 0 0 -1.326733,0.260933 z M 28.147684,67.851392 13.412117,54.265661 a 1.5611207,1.5611207 0 0 0 -0.36264,-2.109509 l 7.518145,-14.125261 a 2.1050808,2.1050808 0 0 0 1.034851,0.09729 l 6.788443,29.594966 A 1.2515503,1.2515503 0 0 0 28.17864,67.851388 Z M 2.4135129,45.562309 A 1.2515503,1.2515503 0 0 0 1.6749658,44.421327 L 4.8148973,30.663109 H 4.916613 a 1.5699657,1.5699657 0 0 0 0.1990084,0 l 6.3019766,21.333853 a 1.5699657,1.5699657 0 0 0 -0.442244,0.309554 l -8.6635572,-6.23562 a 1.2427051,1.2427051 0 0 0 0.1149835,-0.513018 z m 3.843099,-15.651015 12.9975461,5.196365 a 2.2112192,2.2112192 0 0 0 0.84911,2.706533 L 12.611655,51.92178 A 1.5080516,1.5080516 0 0 0 11.908489,51.85102 L 5.6242034,30.512745 A 1.5699657,1.5699657 0 0 0 6.2698806,29.906872 Z M 25.127157,14.193947 43.077835,26.735983 a 2.2112192,2.2112192 0 0 0 -0.221122,1.485939 L 23.066301,34.705218 A 2.2112192,2.2112192 0 0 0 21.739567,33.82073 l 2.078549,-19.016486 a 1.8706916,1.8706916 0 0 0 1.322309,-0.610297 z m 12.281112,38.501762 7.177616,-22.766725 a 2.1802621,2.1802621 0 0 0 1.627448,-0.322837 l 13.395581,15.920788 a 1.5566983,1.5566983 0 0 0 -0.38034,1.008305 l -20.962353,6.974179 a 1.8839589,1.8839589 0 0 0 -0.844687,-0.81371 z M 47.389707,8.7499256 45.054664,25.58615 h -0.03548 a 2.1846846,2.1846846 0 0 0 -1.640716,0.742969 L 25.423439,13.787083 a 1.866269,1.866269 0 0 0 0.212278,-0.862376 c 0,-0.06191 0,-0.123826 0,-0.185743 l 20.67492,-4.9044819 a 1.5655432,1.5655432 0 0 0 1.07907,0.9154435 z M 4.9343033,27.536444 A 1.5566983,1.5566983 0 0 0 4.1603761,27.739877 L 1.8297512,23.759683 a 0.93313456,0.93313456 0 0 0 0.061914,-1.233861 L 9.8962792,11.620089 5.1377347,27.540867 a 1.5655432,1.5655432 0 0 0 -0.2078531,0 z m -3.5379511,-3.537949 2.3704269,4.042108 a 1.5611207,1.5611207 0 0 0 0.574917,2.494256 L 1.2017649,44.310753 v 0 L 1.4007745,24.020606 Z m 9.3136548,28.683931 a 1.5566983,1.5566983 0 0 0 1.592077,2.251017 l 1.477095,5.054851 -0.07076,0.02217 L 2.2100808,46.579519 Z m 4.033264,7.518153 a 0.92871199,0.92871199 0 0 0 -0.442243,-0.247667 l -1.512474,-5.169834 a 1.5699657,1.5699657 0 0 0 0.296303,-0.181311 L 27.329532,67.723151 14.946703,61.195633 a 0.93755696,0.93755696 0 0 0 -0.203432,-0.964106 z m 14.151804,7.381042 h -0.03097 L 22.071252,37.951287 A 2.1846846,2.1846846 0 0 0 22.456005,37.7567 L 35.25454,53.124688 a 1.8706916,1.8706916 0 0 0 0.287458,2.790542 l -6.279861,11.750421 a 1.2382829,1.2382829 0 0 0 -0.367062,-0.05749 z M 21.881089,12.924707 a 1.866269,1.866269 0 0 0 0.305147,1.026009 L 5.9381962,27.90793 A 1.5655432,1.5655432 0 0 0 5.6109353,27.695653 L 10.524264,11.266294 v 0 a 0.93755696,0.93755696 0 0 0 0.84911,-0.521849 l 10.507715,2.06528 c 0,0.03978 0,0.07518 0,0.114982 z m 8.163819,55.444116 a 1.2515503,1.2515503 0 0 0 -0.353795,-0.468779 l 6.279865,-11.750406 a 1.866269,1.866269 0 0 0 1.967983,-0.411306 l 10.51655,8.2567 a 1.2382829,1.2382829 0 0 0 -0.137081,0.557217 v 0 z M 63.385676,54.301048 61.391152,47.999076 a 1.5611207,1.5611207 0 0 0 0.601457,-2.476562 l 7.593331,-9.030631 v 0 l -6.10297,17.809165 z m 5.351153,-21.22771 -4.824879,-8.07095 a 1.5655432,1.5655432 0 0 0 -0.977362,-2.764024 l -1.026005,-7.12455 z M 58.286608,11.359164 49.300209,7.5912483 A 1.5655432,1.5655432 0 0 0 47.022662,5.8532294 L 45.112155,3.4208881 Z M 28.34227,2.02782 a 1.2515503,1.2515503 0 0 0 0.243233,0.2432341 l -4.245541,8.8669879 a 1.8751139,1.8751139 0 0 0 -2.352737,1.185215 l -10.507714,-2.06528 a 0.9508243,0.9508243 0 0 0 0,-0.09729 z"
     id="path829"
     style="fill:url(#linear-gradient-20);stroke-width:0.442243" />
  <metadata
     id="metadata915">
    <rdf:RDF>
      <cc:Work
         rdf:about="">
        <dc:title>insureco-logo-horizontal</dc:title>
      </cc:Work>
    </rdf:RDF>
  </metadata>
</svg>
