<svg xmlns="http://www.w3.org/2000/svg" width="17" height="18" viewBox="0 0 17 18" fill="none">
  <path d="M13.9666 5.12067C13.2721 5.12067 12.6818 4.87761 12.1957 4.3915C11.7096 3.90539 11.4666 3.31511 11.4666 2.62067C11.4666 1.92622 11.7096 1.33594 12.1957 0.849833C12.6818 0.363722 13.2721 0.120667 13.9666 0.120667C14.661 0.120667 15.2513 0.363722 15.7374 0.849833C16.2235 1.33594 16.4666 1.92622 16.4666 2.62067C16.4666 3.31511 16.2235 3.90539 15.7374 4.3915C15.2513 4.87761 14.661 5.12067 13.9666 5.12067ZM0.466553 17.8707V3.37067C0.466553 2.96789 0.613428 2.61719 0.907178 2.31858C1.20093 2.01997 1.55405 1.87067 1.96655 1.87067H10.0291C9.98739 2.12529 9.96655 2.37992 9.96655 2.63456C9.96655 2.88919 9.98739 3.13456 10.0291 3.37067C10.0846 3.69011 10.1575 3.95747 10.2478 4.17275C10.3381 4.38803 10.4666 4.62067 10.6332 4.87067H3.46655V6.37067H12.5499C12.7721 6.454 13.0013 6.5165 13.2374 6.55817C13.4735 6.59983 13.7166 6.62067 13.9666 6.62067C14.3277 6.62067 14.7131 6.56164 15.1228 6.44358C15.5325 6.32553 15.9804 6.09289 16.4666 5.74567V13.3707C16.4666 13.7832 16.3172 14.1363 16.0186 14.43C15.72 14.7238 15.3693 14.8707 14.9666 14.8707H3.46655L0.466553 17.8707ZM3.46655 9.12067H13.4666V7.62067H3.46655V9.12067ZM3.46655 11.8707H10.4666V10.3707H3.46655V11.8707Z" fill="#02A894"/>
  <path d="M12.1957 4.3915C12.6818 4.87761 13.2721 5.12067 13.9666 5.12067C14.661 5.12067 15.2513 4.87761 15.7374 4.3915C16.2235 3.90539 16.4666 3.31511 16.4666 2.62067C16.4666 1.92622 16.2235 1.33594 15.7374 0.849833C15.2513 0.363722 14.661 0.120667 13.9666 0.120667C13.2721 0.120667 12.6818 0.363722 12.1957 0.849833C11.7096 1.33594 11.4666 1.92622 11.4666 2.62067C11.4666 3.31511 11.7096 3.90539 12.1957 4.3915Z" fill="#02A894"/>
  <path d="M12.1957 4.3915C12.6818 4.87761 13.2721 5.12067 13.9666 5.12067C14.661 5.12067 15.2513 4.87761 15.7374 4.3915C16.2235 3.90539 16.4666 3.31511 16.4666 2.62067C16.4666 1.92622 16.2235 1.33594 15.7374 0.849833C15.2513 0.363722 14.661 0.120667 13.9666 0.120667C13.2721 0.120667 12.6818 0.363722 12.1957 0.849833C11.7096 1.33594 11.4666 1.92622 11.4666 2.62067C11.4666 3.31511 11.7096 3.90539 12.1957 4.3915Z" fill="#DF0C0C"/>
</svg>