<svg width="34" height="34" viewBox="0 0 34 34" fill="none" xmlns="http://www.w3.org/2000/svg">
<path d="M30.0968 29.4996C28.4968 31.1996 22.2635 31.958 19.3468 32.1246C17.2634 32.1246 12.7217 31.3872 11.2217 28.4375C9.72168 25.4878 6.18009 23.3751 4.59679 22.6875C-0.353205 18.9875 3.78429 17.3539 6.47179 16.9996C14.0343 16.6871 20.5968 16.6246 26.9718 19.3746C33.3468 22.1246 32.0968 27.3746 30.0968 29.4996Z" fill="#91A21D"/>
<path d="M28.5112 27.5128C27.1626 28.9458 21.9084 29.585 19.4499 29.7255C17.6938 29.7255 13.8655 29.1039 12.6011 26.6175C11.3367 24.1312 8.35146 22.3504 7.01688 21.7708C2.84444 18.652 6.33201 17.275 8.59734 16.9764C14.9719 16.713 20.5035 16.6603 25.8771 18.9783C31.2507 21.2963 30.1971 25.7216 28.5112 27.5128Z" fill="#B8D217"/>
<ellipse cx="18.0342" cy="22.9375" rx="1.85938" ry="0.835938" fill="#484829"/>
<rect x="17.4717" y="1.875" width="1.125" height="21.0625" fill="#F2C372"/>
<path d="M31.3018 5.0625C28.0018 4.9625 21.4684 2.89583 18.6143 1.875C18.6143 5.27083 18.5967 11.3281 18.5967 11.3281C20.2035 10.6406 27.0726 7.02083 31.3018 5.0625Z" fill="#FF4E28"/>
</svg>
