<svg width="60" height="60" viewBox="0 0 60 60" fill="none" xmlns="http://www.w3.org/2000/svg">
<path d="M22.5 5H10C7.23858 5 5 7.23858 5 10V27.5C5 30.2614 7.23858 32.5 10 32.5H22.5C25.2614 32.5 27.5 30.2614 27.5 27.5V10C27.5 7.23858 25.2614 5 22.5 5Z" fill="#1ED0EF"/>
<path d="M50 5H37.5C34.7386 5 32.5 7.23858 32.5 10V17.5C32.5 20.2614 34.7386 22.5 37.5 22.5H50C52.7614 22.5 55 20.2614 55 17.5V10C55 7.23858 52.7614 5 50 5Z" fill="#1ED0EF"/>
<path d="M22.5 37.5H10C7.23858 37.5 5 39.7386 5 42.5V50C5 52.7614 7.23858 55 10 55H22.5C25.2614 55 27.5 52.7614 27.5 50V42.5C27.5 39.7386 25.2614 37.5 22.5 37.5Z" fill="#1ED0EF"/>
<path d="M50 27.5H37.5C34.7386 27.5 32.5 29.7386 32.5 32.5V50C32.5 52.7614 34.7386 55 37.5 55H50C52.7614 55 55 52.7614 55 50V32.5C55 29.7386 52.7614 27.5 50 27.5Z" fill="#1ED0EF"/>
</svg>
