<svg width="60" height="61" viewBox="0 0 60 61" fill="none" xmlns="http://www.w3.org/2000/svg">
<g clip-path="url(#clip0_145_695)">
<path d="M58.803 49.4503C57.6775 47.2761 55.9115 45.8621 54.1865 44.9019C52.4614 43.94 50.7337 43.3946 49.6026 42.9687C48.7079 42.6361 47.7665 42.2046 47.1342 41.7592C46.8176 41.5397 46.586 41.3184 46.4664 41.154C46.3432 40.9832 46.3366 40.9075 46.3347 40.8646C46.3347 40.0146 46.3347 38.9556 46.3347 37.5779C46.897 36.9484 47.5722 36.1593 48.2046 35.1459C48.8639 34.0905 49.4513 32.7773 49.8138 31.2019C50.0201 31.101 50.2257 30.9852 50.4264 30.8441C51.0438 30.4192 51.5658 29.7981 51.9899 28.9903C52.4196 28.1787 52.7894 27.1624 53.1826 25.7886C53.4319 24.9136 53.5488 24.2038 53.5496 23.5771C53.5505 22.9962 53.4432 22.4685 53.1957 22.0182C53.0126 21.682 52.7539 21.4103 52.4934 21.228C52.2309 21.045 51.9854 20.9423 51.7826 20.8751C51.7817 20.8489 51.7808 20.8266 51.7808 20.7975C51.778 20.1166 51.9134 18.9717 52.0674 17.9238C52.1599 17.283 52.2169 16.6022 52.2169 15.8991C52.2169 14.8232 52.0843 13.6893 51.7388 12.5705C51.2261 10.8941 50.1978 9.24469 48.4849 8.0025C46.7841 6.765 44.4549 5.94141 41.3784 5.69379C37.947 5.27543 35.9185 4.88027 34.2794 4.50012C32.6422 4.12184 31.3505 3.74262 29.4677 3.37559V3.37652C29.3575 3.35602 29.2491 3.34477 29.1492 3.34477C28.9026 3.34289 28.6382 3.40734 28.4225 3.52125C28.0098 3.73981 27.7967 4.05082 27.6595 4.30676C27.4279 4.76438 27.3531 5.1791 27.2793 5.61703C27.1812 6.26613 27.1429 6.95531 27.0888 7.52602C27.0626 7.80996 27.0318 8.06297 26.9991 8.23957C26.9832 8.32735 26.9655 8.39555 26.9542 8.43199L26.9458 8.45906C25.2937 11.3571 24.8846 14.385 24.8846 16.7292C24.8846 18.5953 25.1452 20.0514 25.2732 20.6902C25.3198 20.9284 25.3386 21.0919 25.3489 21.2225C25.2172 21.3158 25.079 21.4261 24.9351 21.5671C24.6782 21.8202 24.4215 22.162 24.2347 22.5953C24.0479 23.0268 23.9349 23.5443 23.9358 24.1195C23.9358 24.5678 24.0012 25.0488 24.1414 25.5681C24.6494 27.4547 25.2808 28.765 26.0671 29.7102C26.6537 30.4247 27.3326 30.8925 27.9874 31.2055C28.3516 32.7792 28.9381 34.0914 29.5966 35.1458C30.2289 36.1591 30.9042 36.9483 31.4664 37.5778C31.4664 38.9555 31.4664 40.0145 31.4664 40.8645C31.4674 40.8804 31.4599 40.9682 31.3217 41.1539C31.1227 41.4257 30.6455 41.8086 30.0655 42.1345C29.4864 42.4642 28.8093 42.7528 28.219 42.9612C27.4523 43.232 26.4212 43.5654 25.3126 44.0408C23.6501 44.7524 21.7831 45.7873 20.3037 47.5001C18.8187 49.2074 17.7915 51.6077 17.8008 54.7439C17.8008 55.1754 17.8195 55.6236 17.8578 56.085L17.9513 57.2011H19.0712H59.8503L59.9437 56.085C59.9819 55.6247 60.0007 55.1782 60.0007 54.7477C60.0023 52.6575 59.5539 50.8951 58.803 49.4503Z" fill="#5B6EFF"/>
<path d="M14.9313 54.7436C14.921 51.2002 16.0295 48.0416 18.1385 45.6171C19.6365 43.8827 21.6155 42.5023 24.183 41.403C24.6892 41.1863 25.173 40.9986 25.624 40.8332C25.624 40.4465 25.624 40.0385 25.624 39.579C26.1294 39.0139 26.7354 38.3052 27.3033 37.3945C27.3594 37.3058 27.4107 37.204 27.4649 37.1107C27.364 36.9602 27.2623 36.8248 27.1624 36.6642C26.4749 35.564 25.9267 34.3629 25.5261 33.0815C24.8984 32.6435 24.3372 32.1252 23.8496 31.5302C22.7699 30.2329 21.9789 28.5714 21.371 26.3141C21.1692 25.5659 21.0665 24.8272 21.0665 24.1193C21.0646 23.1768 21.2449 22.2785 21.6017 21.4556C21.7847 21.0297 22.0135 20.6299 22.2835 20.2602C22.106 19.1049 22.0154 17.9188 22.0154 16.7288C22.0154 14.7629 22.2694 12.8996 22.756 11.1475C22.2526 11.0625 21.7305 10.9906 21.1729 10.9459C18.0918 10.5704 16.2706 10.2156 14.7987 9.87454C13.3278 9.53469 12.1677 9.19368 10.4773 8.86403V8.86497C10.3784 8.84715 10.2811 8.83696 10.1916 8.83696C9.97037 8.83508 9.73306 8.89297 9.53877 8.99481C9.16798 9.19192 8.97744 9.47118 8.85416 9.70086C8.64591 10.1118 8.57865 10.4836 8.5122 10.8777C8.42443 11.4606 8.38986 12.0787 8.34134 12.5915C8.31802 12.8465 8.29002 13.0743 8.26095 13.2322C8.24595 13.3116 8.23013 13.3723 8.22087 13.405L8.21244 13.4292C6.72931 16.0322 6.36228 18.7509 6.36228 20.8561C6.36228 22.5315 6.59572 23.8391 6.71068 24.4134C6.75263 24.6273 6.76951 24.7739 6.77877 24.8915C6.66017 24.9746 6.53595 25.0736 6.40716 25.2007C6.17642 25.4277 5.94568 25.7349 5.77763 26.1245C5.61041 26.512 5.50857 26.9762 5.50951 27.4926C5.50951 27.8952 5.56834 28.3276 5.69443 28.7936C6.15005 30.4878 6.71701 31.6645 7.42318 32.5135C7.94982 33.1551 8.55966 33.5755 9.14818 33.8565C9.47513 35.2697 10.0018 36.4473 10.593 37.3943C11.1609 38.3049 11.767 39.0138 12.2723 39.5788C12.2723 40.8153 12.2723 41.767 12.2723 42.5301C12.2732 42.5441 12.2667 42.6225 12.1424 42.7897C11.9631 43.0334 11.5345 43.3782 11.0143 43.6705C10.4941 43.9666 9.88611 44.2262 9.3556 44.413C8.66724 44.6558 7.74169 44.9557 6.74619 45.3825C5.25275 46.0213 3.57627 46.9505 2.24818 48.4888C0.914468 50.0225 -0.00814886 52.178 5.42639e-05 54.9939C5.42639e-05 55.3816 0.0169293 55.7841 0.0514996 56.1986L0.135523 57.2008H1.14041H15.0712L14.9984 56.3238C14.9536 55.7878 14.9313 55.2573 14.9313 54.7436Z" fill="#5B6EFF"/>
</g>
<defs>
<clipPath id="clip0_145_695">
<rect width="60" height="60" fill="white" transform="translate(0 0.273438)"/>
</clipPath>
</defs>
</svg>
