<svg width="60" height="60" viewBox="0 0 60 60" fill="none" xmlns="http://www.w3.org/2000/svg">
<g clip-path="url(#clip0_145_699)">
<path d="M0 48.78V11.28C0 8.16 1.1 5.5 3.3 3.3C5.5 1.1 8.16 0 11.28 0H48.78C51.86 0 54.5 1.1 56.7 3.3C58.9 5.5 60 8.16 60 11.28V48.78C60 51.9 58.9 54.54 56.7 56.7C54.5 58.86 51.86 59.96 48.78 60H11.28C8.16 60 5.5 58.9 3.3 56.7C1.1 54.5 0 51.86 0 48.78ZM7.5 48.78C7.5 49.82 7.86 50.7 8.58 51.42C9.3 52.14 10.2 52.5 11.28 52.5H48.78C49.78 52.5 50.66 52.14 51.42 51.42C52.18 50.7 52.54 49.82 52.5 48.78V11.28C52.5 10.24 52.14 9.36 51.42 8.64C50.7 7.92 49.82 7.54 48.78 7.5H11.28C10.24 7.5 9.34 7.88 8.58 8.64C7.82 9.4 7.46 10.28 7.5 11.28V48.78ZM15 45V37.5H22.5V45H15ZM15 33.78V26.28H22.5V33.78H15ZM15 22.5V15H22.5V22.5H15ZM26.28 45V37.5H45V45H26.28ZM26.28 33.78V26.28H45V33.78H26.28ZM26.28 22.5V15H45V22.5H26.28Z" fill="#63B3ED"/>
</g>
<defs>
<clipPath id="clip0_145_699">
<rect width="60" height="60" fill="white"/>
</clipPath>
</defs>
</svg>
