<svg width="66" height="66" viewBox="0 0 66 66" fill="none" xmlns="http://www.w3.org/2000/svg">
<g clip-path="url(#clip0_145_701)">
<path d="M46.75 8.25C51.1437 8.25 54.7351 11.6845 54.986 16.0153L55 16.5V28.4628L56.6332 27.737C58.3209 26.9869 60.2698 28.1509 60.4811 29.9299L60.5 30.25V52.25C60.5 55.1496 58.2564 57.525 55.4105 57.7349L55 57.75H11C8.1005 57.75 5.72505 55.5064 5.51509 52.6605L5.5 52.25V30.25C5.5 28.4031 7.35525 27.0949 9.06675 27.6243L9.36689 27.737L11 28.4628V16.5C11 12.1064 14.4345 8.51493 18.7653 8.264L19.25 8.25H46.75ZM46.75 13.75H19.25C17.7312 13.75 16.5 14.9812 16.5 16.5V30.9073L33 38.2407L49.5 30.9073V16.5C49.5 14.9812 48.2688 13.75 46.75 13.75ZM33 22C34.5188 22 35.75 23.2312 35.75 24.75C35.75 26.1603 34.6884 27.3226 33.3207 27.4815L33 27.5H27.5C25.9812 27.5 24.75 26.2688 24.75 24.75C24.75 23.3397 25.8116 22.1774 27.1793 22.0185L27.5 22H33Z" fill="#6F42C1"/>
</g>
<defs>
<clipPath id="clip0_145_701">
<rect width="66" height="66" fill="white"/>
</clipPath>
</defs>
</svg>
