<svg width="60" height="60" viewBox="0 0 60 60" fill="none" xmlns="http://www.w3.org/2000/svg">
<path d="M55 12.6064H5C2.23958 12.6064 0 14.846 0 17.6064V54.2731C0 57.0335 2.23958 59.2731 5 59.2731H55C57.7604 59.2731 60 57.0335 60 54.2731V17.6064C60 14.846 57.7604 12.6064 55 12.6064ZM18.3333 22.6064C22.0104 22.6064 25 25.596 25 29.2731C25 32.9502 22.0104 35.9398 18.3333 35.9398C14.6562 35.9398 11.6667 32.9502 11.6667 29.2731C11.6667 25.596 14.6562 22.6064 18.3333 22.6064ZM30 47.2731C30 48.3773 28.9583 49.2731 27.6667 49.2731H9C7.70833 49.2731 6.66667 48.3773 6.66667 47.2731V45.2731C6.66667 41.9606 9.80208 39.2731 13.6667 39.2731H14.1875C15.4687 39.8044 16.8646 40.1064 18.3333 40.1064C19.8021 40.1064 21.2083 39.8044 22.4792 39.2731H23C26.8646 39.2731 30 41.9606 30 45.2731V47.2731Z" fill="#F5365C"/>
<rect x="34.0869" y="32.9043" width="18.9131" height="3.28613" rx="1" fill="white"/>
<rect x="34.0869" y="38.8926" width="18.9131" height="3.28613" rx="1" fill="white"/>
<rect x="34.0869" y="44.8809" width="18.9131" height="3.28613" rx="1" fill="white"/>
<path d="M43.1763 18.4357V21.7249C43.1763 22.027 43.1111 22.3159 42.9621 22.5738C42.8128 22.8321 42.5953 23.032 42.3326 23.1795C42.0693 23.3273 41.7841 23.4087 41.4846 23.3974C41.1866 23.3862 40.9088 23.2847 40.6564 23.1204L31.3111 17.1864C31.3109 17.1863 31.3108 17.1862 31.3106 17.1861C30.8064 16.8675 30.5332 16.385 30.5332 15.7886C30.5332 15.1923 30.8063 14.7099 31.3104 14.3912C31.3107 14.3911 31.3109 14.391 31.3111 14.3908L40.6568 8.45658C40.9096 8.29274 41.1877 8.19156 41.4857 8.18066C41.7851 8.16972 42.07 8.2512 42.3329 8.39911C42.8855 8.70991 43.1752 9.21754 43.1763 9.85154L43.1763 9.85238L43.1763 13.1415H51.8531C52.3042 13.1415 52.706 13.2999 53.0245 13.6183C53.1682 13.762 53.2455 13.9585 53.2913 14.1007C53.343 14.2616 53.3822 14.4457 53.4119 14.6312C53.4714 15.0032 53.5002 15.429 53.5002 15.7886V15.8231C53.5002 16.3582 53.5002 16.7665 53.4326 17.162L53.4307 17.1736L53.4305 17.1736C53.3568 17.5514 53.158 17.8254 53.0233 17.9601C52.7049 18.2785 52.3033 18.4367 51.8523 18.4357H51.8531H43.1763ZM43.1763 18.4357L51.8519 18.4357L43.1763 18.4357Z" fill="white" stroke="#F5365C"/>
</svg>
