<svg width="29" height="34" viewBox="0 0 29 34" fill="none" xmlns="http://www.w3.org/2000/svg">
<g clip-path="url(#clip0_3507_15556)">
<path d="M21.3389 2.46387C23.9423 6.97301 25.3128 12.088 25.3128 17.2947C25.3128 22.5014 23.9423 27.6164 21.3389 32.1255M14.8134 5.72665C16.844 9.24378 17.913 13.2335 17.913 17.2947C17.913 21.3559 16.844 25.3456 14.8134 28.8627M8.58442 8.72248C10.0527 11.2927 10.8257 14.2082 10.8257 17.176C10.8257 20.1439 10.0527 23.0594 8.58442 25.6296M2.35547 11.9556C3.41365 13.5571 3.97466 15.4069 3.97466 17.2947C3.97466 19.1824 3.41365 21.0323 2.35547 22.6338" stroke="white" stroke-width="3.5594" stroke-linecap="round"/>
</g>
<defs>
<clipPath id="clip0_3507_15556">
<rect width="27.6842" height="33.2211" fill="white" transform="translate(0.37793 0.684326)"/>
</clipPath>
</defs>
</svg>
