<svg width="60" height="60" viewBox="0 0 60 60" fill="none" xmlns="http://www.w3.org/2000/svg">
<path d="M52.4775 25H48.55C48.0307 24.9891 47.5265 24.8227 47.1027 24.5223C46.6789 24.2219 46.3549 23.8014 46.1725 23.315L46.16 23.2825C45.9483 22.8095 45.8829 22.284 45.972 21.7736C46.061 21.2631 46.3006 20.7908 46.66 20.4175L49.435 17.6425C49.9083 17.169 50.1741 16.527 50.1741 15.8575C50.1741 15.188 49.9083 14.546 49.435 14.0725L45.935 10.5725C45.4615 10.0992 44.8195 9.83339 44.15 9.83339C43.4805 9.83339 42.8385 10.0992 42.365 10.5725L39.59 13.3475C39.2167 13.7069 38.7444 13.9465 38.2339 14.0356C37.7235 14.1246 37.198 14.0592 36.725 13.8475H36.6925C36.2014 13.6646 35.777 13.3376 35.475 12.9093C35.1729 12.4811 35.0074 11.9715 35 11.4475V7.5225C35 6.85349 34.7342 6.21188 34.2612 5.73882C33.7881 5.26576 33.1465 5 32.4775 5H27.5225C26.8535 5 26.2119 5.26576 25.7388 5.73882C25.2658 6.21188 25 6.85349 25 7.5225V11.4475C24.9892 11.9672 24.8229 12.4717 24.5226 12.896C24.2222 13.3202 23.8016 13.6447 23.315 13.8275H23.2825C22.8095 14.0392 22.284 14.1046 21.7736 14.0155C21.2631 13.9265 20.7908 13.6869 20.4175 13.3275L17.6425 10.5525C17.169 10.0792 16.527 9.81339 15.8575 9.81339C15.188 9.81339 14.546 10.0792 14.0725 10.5525L10.5725 14.0525C10.0992 14.526 9.83339 15.168 9.83339 15.8375C9.83339 16.507 10.0992 17.149 10.5725 17.6225L13.3475 20.3975C13.7069 20.7709 13.9465 21.2431 14.0356 21.7536C14.1246 22.264 14.0592 22.7895 13.8475 23.2625V23.295C13.6671 23.7883 13.3414 24.2153 12.9134 24.5196C12.4854 24.824 11.9751 24.9915 11.45 25H7.5225C6.85349 25 6.21188 25.2658 5.73882 25.7388C5.26576 26.2119 5 26.8535 5 27.5225V32.4775C5 33.1465 5.26576 33.7881 5.73882 34.2612C6.21188 34.7342 6.85349 35 7.5225 35H11.45C11.9693 35.0109 12.4735 35.1773 12.8973 35.4777C13.3211 35.7781 13.6451 36.1986 13.8275 36.685V36.7175C14.0392 37.1905 14.1046 37.716 14.0155 38.2264C13.9265 38.7369 13.6869 39.2092 13.3275 39.5825L10.5525 42.3575C10.0792 42.831 9.81339 43.473 9.81339 44.1425C9.81339 44.812 10.0792 45.454 10.5525 45.9275L14.0525 49.4275C14.526 49.9008 15.168 50.1666 15.8375 50.1666C16.507 50.1666 17.149 49.9008 17.6225 49.4275L20.3975 46.6525C20.7709 46.2931 21.2431 46.0535 21.7536 45.9645C22.264 45.8754 22.7895 45.9408 23.2625 46.1525L23.295 46.165C23.7863 46.3446 24.2119 46.6684 24.5161 47.094C24.8204 47.5195 24.989 48.027 25 48.55V52.4775C25 53.1465 25.2658 53.7881 25.7388 54.2612C26.2119 54.7342 26.8535 55 27.5225 55H32.4775C32.8088 55 33.1368 54.9348 33.4428 54.808C33.7489 54.6812 34.0269 54.4954 34.2612 54.2612C34.4954 54.0269 34.6812 53.7489 34.808 53.4428C34.9348 53.1368 35 52.8088 35 52.4775V48.55C35.0109 48.0307 35.1773 47.5265 35.4777 47.1027C35.7781 46.6789 36.1986 46.3549 36.685 46.1725L36.7175 46.16C37.1905 45.9483 37.716 45.8829 38.2264 45.972C38.7369 46.061 39.2092 46.3006 39.5825 46.66L42.3575 49.435C42.831 49.9083 43.473 50.1741 44.1425 50.1741C44.812 50.1741 45.454 49.9083 45.9275 49.435L49.4275 45.935C49.9008 45.4615 50.1666 44.8195 50.1666 44.15C50.1666 43.4805 49.9008 42.8385 49.4275 42.365L46.6525 39.59C46.2931 39.2167 46.0535 38.7444 45.9645 38.2339C45.8754 37.7235 45.9408 37.198 46.1525 36.725L46.165 36.6925C46.3466 36.2035 46.6713 35.7806 47.0967 35.4787C47.5221 35.1768 48.0285 35.01 48.55 35H52.4775C53.1465 35 53.7881 34.7342 54.2612 34.2612C54.7342 33.7881 55 33.1465 55 32.4775V27.5225C55 27.1912 54.9348 26.8632 54.808 26.5572C54.6812 26.2511 54.4954 25.9731 54.2612 25.7388C54.0269 25.5046 53.7489 25.3188 53.4428 25.192C53.1368 25.0652 52.8088 25 52.4775 25ZM30 37.5C28.5166 37.5 27.0666 37.0601 25.8332 36.236C24.5999 35.4119 23.6386 34.2406 23.0709 32.8701C22.5032 31.4997 22.3547 29.9917 22.6441 28.5368C22.9335 27.082 23.6478 25.7456 24.6967 24.6967C25.7456 23.6478 27.082 22.9335 28.5368 22.6441C29.9917 22.3547 31.4997 22.5032 32.8701 23.0709C34.2406 23.6386 35.4119 24.5999 36.236 25.8332C37.0601 27.0666 37.5 28.5166 37.5 30C37.5 31.9891 36.7098 33.8968 35.3033 35.3033C33.8968 36.7098 31.9891 37.5 30 37.5Z" fill="#D63484"/>
</svg>
