<svg width="60" height="60" viewBox="0 0 60 60" fill="none" xmlns="http://www.w3.org/2000/svg">
<path d="M15.27 50H10C9.33696 50 8.70107 50.2634 8.23223 50.7322C7.76339 51.2011 7.5 51.837 7.5 52.5C7.5 53.163 7.76339 53.7989 8.23223 54.2678C8.70107 54.7366 9.33696 55 10 55H50C50.663 55 51.2989 54.7366 51.7678 54.2678C52.2366 53.7989 52.5 53.163 52.5 52.5C52.5 51.837 52.2366 51.2011 51.7678 50.7322C51.2989 50.2634 50.663 50 50 50H44.73C44.1125 43.065 42.0525 30.975 35.165 27.5C41.575 23.9425 43.7975 15.475 44.575 10H50C50.663 10 51.2989 9.73661 51.7678 9.26777C52.2366 8.79893 52.5 8.16304 52.5 7.5C52.5 6.83696 52.2366 6.20107 51.7678 5.73223C51.2989 5.26339 50.663 5 50 5H10C9.33696 5 8.70107 5.26339 8.23223 5.73223C7.76339 6.20107 7.5 6.83696 7.5 7.5C7.5 8.16304 7.76339 8.79893 8.23223 9.26777C8.70107 9.73661 9.33696 10 10 10H15.425C16.2025 15.475 18.425 23.9425 24.835 27.5C17.9475 30.975 15.8875 43.065 15.27 50ZM22.5 41.5C22.5 38.5 30 32.5 30 32.5C30 32.5 37.5 38.5 37.5 41.5V50H22.5V41.5Z" fill="#2DCE89"/>
</svg>
