<svg width="44" height="31" viewBox="0 0 44 31" fill="none" xmlns="http://www.w3.org/2000/svg">
<rect x="0.368164" width="43.6206" height="30.791" rx="3.84888" fill="#1F72CD"/>
<path fill-rule="evenodd" clip-rule="evenodd" d="M8.18768 10.9052L4.10645 20.2024H8.99226L9.59796 18.7201H10.9825L11.5882 20.2024H16.9661V19.0711L17.4453 20.2024H20.2271L20.7063 19.0471V20.2024H31.8909L33.2509 18.7586L34.5244 20.2024L40.269 20.2144L36.1749 15.5798L40.269 10.9052H34.6135L33.2896 12.3224L32.0562 10.9052H19.8889L18.8441 13.3049L17.7747 10.9052H12.8991V11.9981L12.3567 10.9052H8.18768ZM9.13349 12.2254H11.5151L14.2222 18.5299V12.2254H16.8311L18.922 16.7457L20.849 12.2254H23.4449V18.8968H21.8653L21.8524 13.6691L19.5496 18.8968H18.1367L15.821 13.6691V18.8968H12.5715L11.9555 17.4012H8.62723L8.01247 18.8955H6.27144L9.13349 12.2254ZM31.3127 12.2254H24.89V18.8929H31.2133L33.2514 16.6832L35.2158 18.8929H37.2693L34.2846 15.5785L37.2693 12.2254H35.3049L33.2772 14.4097L31.3127 12.2254ZM10.2913 13.3542L9.19475 16.0185H11.3865L10.2913 13.3542ZM26.4752 14.8246V13.6067V13.6055H30.4828L32.2315 15.5532L30.4053 17.5115H26.4752V16.182H29.9791V14.8246H26.4752Z" fill="white"/>
</svg>
