<svg width="45" height="31" viewBox="0 0 45 31" fill="none" xmlns="http://www.w3.org/2000/svg">
<rect width="44.2621" height="30.791" rx="3.84888" fill="white" fill-opacity="0.1"/>
<path fill-rule="evenodd" clip-rule="evenodd" d="M20.3201 24.7611H23.6508C28.8499 24.7611 32.9929 20.6364 33.1554 15.5411V15.4602C33.0742 10.2841 28.8499 6.07847 23.6508 6.15934H19.9139C14.9586 6.3211 11.0592 10.5267 11.2217 15.5411C11.2217 20.5555 15.2835 24.6802 20.3201 24.7611ZM12.8462 15.4602C12.8462 11.2546 16.3393 7.77685 20.5636 7.77685C24.7879 7.77685 28.281 11.2546 28.281 15.4602C28.281 19.6658 24.7879 23.1435 20.5636 23.1435C16.3393 23.1435 12.8462 19.6658 12.8462 15.4602ZM21.7824 20.6363V10.3649C24.6257 11.0928 26.4129 13.9235 25.6818 16.7542C25.1944 18.6953 23.7321 20.1511 21.7824 20.6363ZM15.5271 14.1662C14.796 16.9969 16.5019 19.9085 19.3452 20.6363V10.3649C17.4768 10.8502 16.0145 12.306 15.5271 14.1662Z" fill="#0079BE"/>
</svg>
