<svg width="44" height="31" viewBox="0 0 44 31" fill="none" xmlns="http://www.w3.org/2000/svg">
<rect width="43.6206" height="30.791" rx="3.84888" fill="white" fill-opacity="0.1"/>
<path d="M24.7559 30.0378L43.038 24.505V27.1511C43.038 28.7454 41.7456 30.0378 40.1514 30.0378H24.7559Z" fill="#FD6020"/>
<path fill-rule="evenodd" clip-rule="evenodd" d="M37.7112 11.6888C39.0523 11.6888 39.7899 12.3092 39.7899 13.481C39.8569 14.3771 39.2534 15.1353 38.4488 15.2732L40.2592 17.8236H38.8511L37.3089 15.3421H37.1748V17.8236H36.0349V11.6888H37.7112ZM37.1749 14.515H37.5102C38.2477 14.515 38.583 14.1703 38.583 13.5499C38.583 12.9985 38.2477 12.6539 37.5102 12.6539H37.1749V14.515ZM32.0789 17.8236H35.2974V16.7896H33.2188V15.1353H35.2304V14.1014H33.2188V12.7228H35.2974V11.6888H32.0789V17.8236ZM28.7259 15.8246L27.1836 11.6888H25.9767L28.4576 17.9614H29.0611L31.5421 11.6888H30.3351L28.7259 15.8246ZM15.1141 14.7907C15.1141 16.5139 16.4552 17.9614 18.1315 17.9614C18.6679 17.9614 19.1373 17.8236 19.6067 17.6168V16.2382C19.2714 16.6518 18.802 16.9275 18.2656 16.9275C17.1928 16.9275 16.3211 16.1003 16.3211 14.9975V14.8596C16.254 13.7567 17.1257 12.7917 18.1986 12.7228C18.735 12.7228 19.2714 12.9985 19.6067 13.4121V12.0335C19.2044 11.7578 18.6679 11.6889 18.1986 11.6889C16.4552 11.551 15.1141 12.9985 15.1141 14.7907ZM13.0357 14.0324C12.3652 13.7567 12.164 13.6189 12.164 13.2742C12.2311 12.8606 12.5664 12.516 12.9687 12.5849C13.304 12.5849 13.6392 12.7917 13.9074 13.0674L14.5109 12.2403C14.0415 11.8267 13.4381 11.551 12.8346 11.551C11.8958 11.4821 11.0912 12.2403 11.0241 13.2053V13.2742C11.0241 14.1014 11.3594 14.5839 12.4323 14.9285C12.7005 14.9975 12.9687 15.1353 13.2369 15.2732C13.4381 15.411 13.5722 15.6178 13.5722 15.8935C13.5722 16.3761 13.1699 16.7896 12.7675 16.7896H12.7005C12.164 16.7896 11.6947 16.445 11.4935 15.9625L10.7559 16.7207C11.1582 17.4789 11.9629 17.8925 12.7675 17.8925C13.8404 17.9614 14.7121 17.1343 14.7791 16.0314V15.8246C14.7121 14.9975 14.3768 14.5839 13.0357 14.0324ZM9.14627 17.8236H10.2862V11.6888H9.14627V17.8236ZM3.84961 11.6889H5.52595H5.86122C7.4705 11.7578 8.74452 13.1364 8.67747 14.7907C8.67747 15.6868 8.27514 16.5139 7.60461 17.1343C7.00113 17.6168 6.26354 17.8925 5.52595 17.8236H3.84961V11.6889ZM5.32469 16.7896C5.86112 16.8585 6.4646 16.6518 6.86693 16.3071C7.26925 15.8935 7.47041 15.3421 7.47041 14.7217C7.47041 14.1703 7.26925 13.6189 6.86693 13.2053C6.4646 12.8606 5.86112 12.6538 5.32469 12.7228H4.98943V16.7896H5.32469Z" fill="black"/>
<path fill-rule="evenodd" clip-rule="evenodd" d="M23.0259 11.5466C21.3495 11.5466 19.9414 12.9252 19.9414 14.7174C19.9414 16.4406 21.2825 17.8881 23.0259 17.9571C24.7693 18.026 26.1103 16.5785 26.1774 14.7863C26.1103 12.9942 24.7693 11.5466 23.0259 11.5466V11.5466Z" fill="#FD6020"/>
</svg>
