<svg width="44" height="31" viewBox="0 0 44 31" fill="none" xmlns="http://www.w3.org/2000/svg">
<rect x="0.368164" width="43.6206" height="30.791" rx="3.84888" fill="white" fill-opacity="0.1"/>
<path d="M28.57 15.3369C29.2516 15.3517 29.937 15.3068 30.6159 15.3602C31.3034 15.4885 31.4691 16.5292 30.8583 16.8701C30.4415 17.0947 29.9465 16.9537 29.4947 16.9933H28.57V15.3369ZM31.01 13.462C31.1614 13.9965 30.6461 14.4764 30.1314 14.4028H28.57C28.5809 13.8987 28.5486 13.3516 28.5858 12.8741C29.2113 12.8917 29.8426 12.8382 30.4645 12.9021C30.7317 12.9692 30.9553 13.1889 31.01 13.462ZM34.7677 5.53538C34.7967 6.55615 34.7719 7.63088 34.7802 8.67236C34.7783 12.9066 34.7843 17.1408 34.7769 21.3753C34.7495 22.9622 33.3431 24.3411 31.7672 24.3728C30.1897 24.3792 28.6121 24.3738 27.0344 24.3755V17.9742C28.7533 17.9653 30.4732 17.9922 32.1914 17.9608C32.9885 17.9107 33.8616 17.3848 33.8987 16.5076C33.9925 15.6266 33.1619 15.0173 32.3734 14.9211C32.0702 14.9132 32.0791 14.8327 32.3734 14.7976C33.1255 14.635 33.7161 13.8566 33.4948 13.077C33.3062 12.2571 32.4 11.9397 31.6462 11.9413C30.1091 11.9308 28.5718 11.9398 27.0348 11.9368C27.0447 10.7417 27.014 9.54539 27.0513 8.35121C27.173 6.79296 28.6148 5.5079 30.1686 5.53578C31.7018 5.53555 33.2348 5.53555 34.7677 5.53549V5.53538Z" fill="url(#paint0_linear_3814_6867)"/>
<path d="M9.66491 8.51254C9.70416 6.92816 11.1165 5.56057 12.6904 5.53742C14.262 5.53257 15.8339 5.53672 17.4055 5.53532C17.4012 10.8363 17.414 16.1379 17.399 21.4387C17.3385 23.0038 15.9415 24.3453 14.3848 24.373C12.8102 24.3787 11.2354 24.3738 9.66077 24.3754V17.7582C11.1903 18.1196 12.7942 18.2734 14.3545 18.0337C15.2872 17.8836 16.3077 17.4256 16.6235 16.458C16.8559 15.6303 16.7251 14.7591 16.7596 13.9096V11.9367H14.0593C14.0472 13.2415 14.0841 14.5486 14.0398 15.8519C13.967 16.653 13.1737 17.1619 12.4182 17.1347C11.4812 17.1446 9.62449 16.4557 9.62449 16.4557C9.61982 14.011 9.65167 10.9494 9.66491 8.51277V8.51254Z" fill="url(#paint1_linear_3814_6867)"/>
<path d="M18.4117 12.7326C18.2696 12.7627 18.3832 12.2484 18.3468 12.0533C18.3565 10.8197 18.3266 9.58476 18.3633 8.35203C18.4848 6.78718 19.9376 5.49892 21.4977 5.53555H26.0919C26.0876 10.8366 26.1004 16.1382 26.0854 21.4389C26.0248 23.004 24.6277 24.3455 23.0709 24.3732C21.4963 24.3792 19.9215 24.3742 18.3468 24.3757V17.1257C19.4222 18.0081 20.8839 18.1455 22.2238 18.1479C23.2339 18.1475 24.2381 17.9918 25.219 17.7588V16.4306C24.1136 16.9816 22.8141 17.3315 21.5886 17.015C20.7338 16.8022 20.1133 15.9761 20.1271 15.0939C20.0281 14.1765 20.5658 13.2079 21.4674 12.9352C22.5867 12.5847 23.8067 12.8527 24.8559 13.3083C25.0807 13.426 25.3089 13.572 25.219 13.1963V12.1523C23.4642 11.7348 21.5967 11.5812 19.8337 12.0354C19.3234 12.1793 18.8263 12.3976 18.4117 12.7327V12.7326Z" fill="url(#paint2_linear_3814_6867)"/>
<defs>
<linearGradient id="paint0_linear_3814_6867" x1="26.9815" y1="14.5526" x2="34.7314" y2="14.5526" gradientUnits="userSpaceOnUse">
<stop stop-color="#58B03A"/>
<stop offset="1" stop-color="#55B330"/>
</linearGradient>
<linearGradient id="paint1_linear_3814_6867" x1="9.49599" y1="15.1358" x2="17.2785" y2="15.1358" gradientUnits="userSpaceOnUse">
<stop stop-color="#0F6EB6"/>
<stop offset="1" stop-color="#006DBA"/>
</linearGradient>
<linearGradient id="paint2_linear_3814_6867" x1="18.3354" y1="14.7353" x2="26.0905" y2="14.7353" gradientUnits="userSpaceOnUse">
<stop stop-color="#DE0D3D"/>
<stop offset="1" stop-color="#E30138"/>
</linearGradient>
</defs>
</svg>
