<svg width="44" height="31" viewBox="0 0 44 31" fill="none" xmlns="http://www.w3.org/2000/svg">
<rect width="43.6206" height="30.791" rx="3.84888" fill="white" fill-opacity="0.1"/>
<path d="M24.7063 15.018C24.7063 19.7694 20.8987 23.6212 16.2018 23.6212C11.5049 23.6212 7.69727 19.7694 7.69727 15.018C7.69727 10.2666 11.5049 6.4148 16.2018 6.4148C20.8987 6.4148 24.7063 10.2666 24.7063 15.018Z" fill="#ED0006"/>
<path d="M35.7395 15.018C35.7395 19.7694 31.9319 23.6212 27.235 23.6212C22.5381 23.6212 18.7305 19.7694 18.7305 15.018C18.7305 10.2666 22.5381 6.4148 27.235 6.4148C31.9319 6.4148 35.7395 10.2666 35.7395 15.018Z" fill="#0099DF"/>
<path fill-rule="evenodd" clip-rule="evenodd" d="M21.7186 21.5663C23.5473 19.9883 24.7068 17.6402 24.7068 15.0182C24.7068 12.3961 23.5473 10.048 21.7186 8.47004C19.89 10.048 18.7305 12.3961 18.7305 15.0182C18.7305 17.6402 19.89 19.9883 21.7186 21.5663Z" fill="#6C6BBD"/>
</svg>
