<svg width="44" height="31" viewBox="0 0 44 31" fill="none" xmlns="http://www.w3.org/2000/svg">
<rect width="43.6206" height="30.791" rx="3.84888" fill="white" fill-opacity="0.1"/>
<path fill-rule="evenodd" clip-rule="evenodd" d="M22.0393 21.5916C20.5203 22.872 18.5498 23.6449 16.3966 23.6449C11.5921 23.6449 7.69727 19.7964 7.69727 15.0491C7.69727 10.3017 11.5921 6.45325 16.3966 6.45325C18.5498 6.45325 20.5203 7.22619 22.0393 8.50658C23.5584 7.22619 25.5289 6.45325 27.682 6.45325C32.4866 6.45325 36.3814 10.3017 36.3814 15.0491C36.3814 19.7964 32.4866 23.6449 27.682 23.6449C25.5289 23.6449 23.5584 22.872 22.0393 21.5916Z" fill="#ED0006"/>
<path fill-rule="evenodd" clip-rule="evenodd" d="M22.04 21.5916C23.9106 20.0149 25.0967 17.6689 25.0967 15.0491C25.0967 12.4293 23.9106 10.0832 22.04 8.50658C23.5591 7.22619 25.5296 6.45325 27.6827 6.45325C32.4873 6.45325 36.3821 10.3017 36.3821 15.0491C36.3821 19.7964 32.4873 23.6449 27.6827 23.6449C25.5296 23.6449 23.5591 22.872 22.04 21.5916Z" fill="#F9A000"/>
<path fill-rule="evenodd" clip-rule="evenodd" d="M22.04 21.5917C23.9106 20.0151 25.0967 17.669 25.0967 15.0492C25.0967 12.4294 23.9106 10.0834 22.04 8.50672C20.1695 10.0834 18.9834 12.4294 18.9834 15.0492C18.9834 17.669 20.1695 20.0151 22.04 21.5917Z" fill="#FF5E00"/>
</svg>
