<svg width="44" height="31" viewBox="0 0 44 31" fill="none" xmlns="http://www.w3.org/2000/svg">
<rect width="43.6206" height="30.791" rx="3.84888" fill="white" fill-opacity="0.1"/>
<g clip-path="url(#clip0_3814_7002)">
<path d="M16.1481 7.17984C11.7553 7.17984 8.18457 10.909 8.18457 15.4898C8.18457 20.0707 11.7553 23.8032 16.1481 23.8032H26.8669C31.2532 23.8032 34.8304 20.0741 34.8304 15.4864C34.8304 10.9056 31.2597 7.16966 26.8669 7.16966H16.1481V7.17984Z" fill="white"/>
<path d="M26.8705 23.9762H16.1485C11.6712 23.9762 8.02246 20.1725 8.02246 15.4898C8.02246 10.814 11.6647 7.01018 16.1485 7.01018H26.8672C31.3445 7.01018 34.9867 10.814 34.9867 15.4898C34.99 20.1691 31.3477 23.9762 26.8705 23.9762ZM16.1485 7.17984C11.7557 7.17984 8.18492 10.909 8.18492 15.4898C8.18492 20.0707 11.7557 23.8032 16.1485 23.8032H26.8672C31.2535 23.8032 34.8308 20.0741 34.8308 15.4864C34.8308 10.9056 31.26 7.16966 26.8672 7.16966H16.1485V7.17984Z" fill="white"/>
<path d="M28.7422 14.9842L32.3064 19.4158C33.0472 18.3028 33.4761 16.9523 33.4761 15.4932C33.4761 13.9595 32.9953 12.5377 32.1765 11.3908L28.7422 14.9842Z" fill="#E31F28"/>
<path d="M18.6372 11.0108C21.2982 11.0108 23.3062 11.72 23.5141 14.0613L26.3148 11.0108H31.8968C30.6784 9.52455 28.8816 8.58124 26.8704 8.58124H16.1484C14.1372 8.58124 12.3307 9.52455 11.1221 11.0108H18.6372Z" fill="#E31F28"/>
<path d="M14.2537 13.9663L13.3018 16.6944H17.1389C18.2696 16.6944 18.6173 16.2024 18.8707 15.2591C19.1241 14.3226 18.4906 13.9663 17.7173 13.9663H14.2537Z" fill="#E31F28"/>
<path d="M26.3412 19.7856L23.378 15.8766C22.8289 18.5437 21.0354 19.7856 17.6726 19.7856H10.9697C12.1816 21.377 14.0531 22.395 16.1488 22.395H26.8676C28.9632 22.395 30.8282 21.3703 32.0401 19.7856H26.3412Z" fill="#E31F28"/>
</g>
<defs>
<clipPath id="clip0_3814_7002">
<rect width="27" height="17" fill="white" transform="translate(8 7)"/>
</clipPath>
</defs>
</svg>
