<svg width="44" height="32" viewBox="0 0 44 32" fill="none" xmlns="http://www.w3.org/2000/svg">
<rect x="0.368164" y="0.635269" width="43.6206" height="30.791" rx="3.84888" fill="white" fill-opacity="0.1"/>
<path d="M13.8634 7.05104H20.7377C21.6973 7.05104 22.2942 7.8562 22.0703 8.84729L18.8698 22.9924C18.644 23.98 17.6832 24.7859 16.7229 24.7859H9.84926C8.89101 24.7859 8.29283 23.98 8.51669 22.9924L11.7185 8.84729C11.9424 7.8562 12.9026 7.05104 13.8634 7.05104Z" fill="#E21836"/>
<path d="M20.1657 7.05006H28.071C29.0304 7.05006 28.5978 7.85522 28.3721 8.84632L25.1721 22.9914C24.9476 23.9791 25.0176 24.7849 24.0562 24.7849H16.1509C15.1895 24.7849 14.5945 23.9791 14.8203 22.9914L18.0202 8.84632C18.2474 7.85522 19.2056 7.05006 20.1657 7.05006Z" fill="#00447C"/>
<path d="M27.7572 7.05006H34.6315C35.5925 7.05006 36.1893 7.85522 35.9636 8.84632L32.7636 22.9914C32.5377 23.9791 31.5763 24.7849 30.6155 24.7849H23.7444C22.7829 24.7849 22.1866 23.9791 22.4118 22.9914L25.6123 8.84632C25.8362 7.85522 26.7957 7.05006 27.7572 7.05006Z" fill="#007B84"/>
<path d="M15.659 11.5831C14.9521 11.5906 14.7433 11.5831 14.6766 11.5669C14.651 11.6923 14.174 13.9576 14.1726 13.9595C14.0699 14.4178 13.9952 14.7444 13.7413 14.9554C13.5972 15.078 13.429 15.1372 13.234 15.1372C12.9205 15.1372 12.7379 14.9769 12.7072 14.673L12.7013 14.5687C12.7013 14.5687 12.7968 13.9548 12.7968 13.9514C12.7968 13.9514 13.2975 11.8871 13.3871 11.6142C13.3918 11.5987 13.3932 11.5906 13.3943 11.5831C12.4198 11.5919 12.2471 11.5831 12.2352 11.5669C12.2286 11.5892 12.2045 11.7172 12.2045 11.7172L11.6933 14.0438L11.6494 14.2411L11.5645 14.8866C11.5645 15.078 11.601 15.2343 11.6737 15.3664C11.9066 15.7854 12.571 15.8482 12.9468 15.8482C13.431 15.8482 13.8853 15.7423 14.1922 15.5489C14.7251 15.2248 14.8645 14.7182 14.9888 14.268L15.0464 14.0371C15.0464 14.0371 15.5622 11.8931 15.6498 11.6142C15.6532 11.5987 15.6545 11.5906 15.659 11.5831ZM17.4138 13.3127C17.2895 13.3127 17.0623 13.3438 16.8582 13.4467C16.7841 13.4859 16.7141 13.5311 16.6402 13.5761L16.7069 13.3282L16.6703 13.2865C16.2375 13.3767 16.1407 13.3888 15.7409 13.4467L15.7074 13.4697C15.661 13.8659 15.6198 14.1638 15.4477 14.9425C15.3822 15.2295 15.3141 15.5193 15.246 15.8056L15.2644 15.842C15.6741 15.8198 15.7984 15.8198 16.1544 15.8258L16.1833 15.7936C16.2285 15.555 16.2344 15.4991 16.3346 15.016C16.3816 14.7869 16.4798 14.2836 16.5283 14.1044C16.6172 14.062 16.705 14.0202 16.7888 14.0202C16.9884 14.0202 16.9641 14.1995 16.9564 14.2709C16.9478 14.3907 16.8751 14.7823 16.8005 15.1185L16.7508 15.3354C16.7161 15.4957 16.6781 15.6514 16.6434 15.8103L16.6585 15.842C17.0623 15.8198 17.1854 15.8198 17.5302 15.8258L17.5708 15.7936C17.6331 15.421 17.6514 15.3213 17.762 14.7788L17.8176 14.5296C17.9257 14.0418 17.98 13.7945 17.8982 13.593C17.8117 13.3672 17.6043 13.3127 17.4138 13.3127ZM19.3741 13.8234C19.1594 13.8659 19.0225 13.8941 18.8865 13.9124C18.7516 13.9347 18.6201 13.9549 18.4126 13.9845L18.3962 13.9999L18.3811 14.0121C18.3595 14.1712 18.3444 14.3086 18.3158 14.4702C18.2915 14.6374 18.2541 14.8273 18.1933 15.1002C18.1462 15.309 18.1219 15.3818 18.0951 15.4553C18.069 15.5288 18.0402 15.6002 17.9872 15.8056L17.9996 15.8246L18.01 15.842C18.2039 15.8325 18.3307 15.8258 18.4611 15.8246C18.5912 15.8198 18.7261 15.8246 18.9349 15.8258L18.9532 15.8104L18.9728 15.7935C19.0029 15.6083 19.0075 15.5584 19.0259 15.4681C19.0442 15.3711 19.0757 15.2369 19.1529 14.8785C19.1894 14.7102 19.2301 14.5423 19.268 14.3705C19.3074 14.1994 19.3486 14.0309 19.3878 13.8626L19.3819 13.8422L19.3741 13.8234ZM19.3786 13.1348C19.1836 13.0163 18.8413 13.0539 18.6109 13.2176C18.3812 13.378 18.355 13.6057 18.5494 13.7258C18.7411 13.841 19.0848 13.8067 19.3131 13.6416C19.5423 13.4777 19.571 13.2521 19.3786 13.1348ZM20.5582 15.8791C20.9528 15.8791 21.3572 15.7672 21.6617 15.435C21.8959 15.1656 22.0033 14.7647 22.0405 14.5997C22.1617 14.0525 22.0673 13.7971 21.9489 13.6415C21.7689 13.4043 21.4509 13.3283 21.121 13.3283C20.9226 13.3283 20.4501 13.3485 20.081 13.6988C19.8159 13.9515 19.6934 14.2944 19.6195 14.6231C19.5449 14.9581 19.4592 15.5611 19.9978 15.7855C20.1641 15.859 20.4037 15.8791 20.5582 15.8791ZM20.5273 14.6481C20.6183 14.2338 20.7257 13.8861 20.9998 13.8861C21.2146 13.8861 21.2302 14.1448 21.1347 14.5605C21.1176 14.6528 21.0392 14.9959 20.9331 15.1419C20.8591 15.2497 20.7715 15.3151 20.6746 15.3151C20.6458 15.3151 20.4744 15.3151 20.4717 15.0531C20.4704 14.9238 20.496 14.7916 20.5273 14.6481ZM23.0269 15.8259L23.0578 15.7936C23.1015 15.5551 23.1087 15.499 23.2055 15.016C23.254 14.787 23.3542 14.2837 23.4013 14.1045C23.4904 14.0619 23.5767 14.0201 23.6631 14.0201C23.8614 14.0201 23.8372 14.1993 23.8294 14.2707C23.8222 14.3908 23.7494 14.7822 23.6735 15.1183L23.6265 15.3353C23.5904 15.4957 23.5512 15.6513 23.5165 15.8103L23.5316 15.8421C23.9368 15.8198 24.0552 15.8198 24.4021 15.8259L24.444 15.7936C24.5048 15.4209 24.5212 15.3212 24.6351 14.7789L24.6894 14.5295C24.798 14.0417 24.853 13.7945 24.7725 13.5931C24.6836 13.3673 24.4748 13.3128 24.287 13.3128C24.1625 13.3128 23.9341 13.3436 23.7312 13.4468C23.6586 13.4859 23.5859 13.531 23.5145 13.5761L23.5767 13.3283L23.5433 13.2864C23.1107 13.3768 23.0119 13.3888 22.6126 13.4468L22.5819 13.4697C22.5335 13.8659 22.4941 14.1636 22.322 14.9426C22.2565 15.2296 22.1885 15.5194 22.1205 15.8057L22.1387 15.8421C22.5491 15.8198 22.6715 15.8198 23.0269 15.8259ZM26.0037 15.842C26.0291 15.714 26.1804 14.9554 26.1818 14.9554C26.1818 14.9554 26.3106 14.3988 26.3185 14.3786C26.3185 14.3786 26.359 14.3207 26.3996 14.2977H26.4592C27.0221 14.2977 27.6576 14.2977 28.1558 13.9205C28.4947 13.6618 28.7264 13.2797 28.8298 12.8154C28.8566 12.7016 28.8764 12.5662 28.8764 12.4308C28.8764 12.2529 28.8417 12.077 28.7415 11.9395C28.4875 11.5737 27.9817 11.567 27.3977 11.5642C27.3959 11.5642 27.1099 11.567 27.1099 11.567C26.3624 11.5764 26.0626 11.5737 25.9395 11.5582C25.9291 11.6142 25.9095 11.7139 25.9095 11.7139C25.9095 11.7139 25.6417 12.9913 25.6417 12.9934C25.6417 12.9934 25.001 15.7093 24.9708 15.8373C25.6235 15.8292 25.8911 15.8292 26.0037 15.842ZM26.4998 13.5728C26.4998 13.5728 26.7845 12.298 26.7831 12.3028L26.7923 12.2374L26.7964 12.1876L26.9101 12.1996C26.9101 12.1996 27.4973 12.2516 27.511 12.2529C27.7427 12.3452 27.8382 12.5831 27.7715 12.8935C27.7107 13.1773 27.5319 13.4158 27.3022 13.531C27.113 13.6287 26.8813 13.6368 26.6425 13.6368H26.4881L26.4998 13.5728ZM28.2723 14.6717C28.197 15.0019 28.1106 15.6049 28.6466 15.8198C28.8175 15.8946 28.9706 15.9169 29.1263 15.9088C29.2907 15.8997 29.443 15.8148 29.5841 15.6927C29.5713 15.7429 29.5586 15.7931 29.5459 15.8434L29.5702 15.8757C29.9557 15.8589 30.0753 15.8589 30.4931 15.8622L30.5309 15.8326C30.5919 15.4634 30.6494 15.105 30.8079 14.3989C30.8851 14.0606 30.9622 13.7257 31.0415 13.3888L31.0291 13.3517C30.5978 13.434 30.4825 13.4516 30.0676 13.5121L30.0361 13.5385C30.0319 13.5728 30.0276 13.6058 30.0236 13.6387C29.9591 13.5314 29.8656 13.4399 29.7213 13.3828C29.5368 13.3081 29.1035 13.4043 28.731 13.7534C28.4693 14.0027 28.3436 14.3442 28.2723 14.6717ZM29.1781 14.6919C29.2704 14.285 29.3765 13.9407 29.6513 13.9407C29.825 13.9407 29.9165 14.1058 29.8979 14.3873C29.8832 14.4575 29.8672 14.5315 29.8483 14.6152C29.8208 14.7361 29.791 14.8559 29.762 14.976C29.7325 15.0581 29.6982 15.1355 29.6605 15.1871C29.5898 15.2903 29.4215 15.3543 29.3247 15.3543C29.2972 15.3543 29.1276 15.3543 29.1218 15.0969C29.1204 14.9688 29.1461 14.8368 29.1781 14.6919ZM33.9083 13.3484L33.8749 13.3093C33.4482 13.3983 33.3709 13.4124 32.9788 13.4669L32.95 13.4966C32.9487 13.5014 32.9475 13.5088 32.9455 13.5156L32.9442 13.5088C32.6523 14.202 32.6608 14.0525 32.4232 14.5982C32.4219 14.5734 32.4219 14.5579 32.4205 14.5315L32.3611 13.3484L32.3237 13.3093C31.8767 13.3983 31.8661 13.4124 31.4532 13.4669L31.4211 13.4966C31.4165 13.5107 31.4165 13.5262 31.4139 13.5432L31.4165 13.5492C31.4682 13.8207 31.4558 13.7601 31.5075 14.1886C31.5317 14.3988 31.5638 14.6103 31.588 14.818C31.6287 15.1655 31.6515 15.3366 31.7012 15.867C31.4224 16.3407 31.3564 16.5199 31.088 16.9356L31.0898 16.9397L30.9008 17.2474C30.8792 17.2799 30.8596 17.3021 30.8321 17.3116C30.802 17.3269 30.7627 17.3297 30.7083 17.3297H30.6036L30.4479 17.8627L30.9819 17.8722C31.2954 17.8708 31.4925 17.7199 31.5985 17.517L31.9343 16.9247H31.9289L31.9643 16.883C32.1902 16.3824 33.9083 13.3484 33.9083 13.3484ZM28.2723 20.3483H28.0457L28.8842 17.4935H29.1623L29.2506 17.1994L29.2592 17.5264C29.2488 17.7286 29.4033 17.9078 29.8091 17.8781H30.2784L30.4399 17.3284H30.2633C30.1618 17.3284 30.1147 17.302 30.1206 17.2454L30.112 16.9127H29.2429V16.9144C28.9619 16.9205 28.1228 16.9422 27.9529 16.9888C27.7473 17.0433 27.5306 17.2037 27.5306 17.2037L27.6158 16.9093H26.8028L26.6334 17.4935L25.7837 20.3919H25.6188L25.4571 20.9376H27.0764L27.0221 21.1196H27.82L27.873 20.9376H28.0968L28.2723 20.3483ZM27.6079 18.0735C27.4777 18.1106 27.2354 18.2231 27.2354 18.2231L27.4509 17.4935H28.0968L27.941 18.0251C27.941 18.0251 27.7414 18.0371 27.6079 18.0735ZM27.6203 19.1159C27.6203 19.1159 27.4174 19.1421 27.2838 19.1731C27.1523 19.2142 26.9057 19.3435 26.9057 19.3435L27.1282 18.5843H27.7775L27.6203 19.1159ZM27.2584 20.355H26.6104L26.7983 19.7142H27.4442L27.2584 20.355ZM28.8188 18.5843H29.7527L29.6185 19.0317H28.6721L28.5301 19.5209H29.3581L28.7311 20.4297C28.6872 20.4964 28.6478 20.5201 28.6041 20.5389C28.5602 20.5618 28.5026 20.5887 28.4359 20.5887H28.2062L28.0483 21.1244H28.6492C28.9615 21.1244 29.146 20.9782 29.2822 20.7862L29.7122 20.1804L29.8045 20.7955C29.8241 20.9107 29.9045 20.9782 29.959 21.0044C30.0191 21.0354 30.0813 21.0887 30.1691 21.0967C30.2633 21.1008 30.3313 21.1041 30.3765 21.1041H30.6718L30.849 20.5045H30.7326C30.6657 20.5045 30.5506 20.493 30.531 20.4714C30.5114 20.4452 30.5114 20.4048 30.5009 20.3434L30.4072 19.727H30.0237L30.1919 19.5209H31.1364L31.2817 19.0317H30.4072L30.5434 18.5843H31.4152L31.5769 18.0325H28.9778L28.8188 18.5843ZM20.9305 20.4796L21.1485 19.7331H22.0444L22.2081 19.1778H21.3114L21.4483 18.7183H22.3246L22.4869 18.1807H20.2943L20.1353 18.7183H20.6334L20.5006 19.1778H20.0011L19.8355 19.7426H20.3335L20.043 20.7302C20.0037 20.8609 20.0614 20.9108 20.0979 20.9715C20.1353 21.0307 20.1731 21.0698 20.2583 21.0921C20.3461 21.1123 20.4062 21.1243 20.488 21.1243H21.498L21.678 20.5092L21.2303 20.5725C21.1438 20.5725 20.9044 20.5619 20.9305 20.4796ZM21.0333 16.9059L20.8062 17.3283C20.7576 17.4206 20.7139 17.4779 20.6745 17.5043C20.6398 17.5265 20.5711 17.5358 20.4716 17.5358H20.3532L20.1948 18.0762H20.5882C20.7774 18.0762 20.9227 18.0048 20.992 17.9691C21.0666 17.9281 21.0862 17.9515 21.1439 17.8942L21.2767 17.7757H22.5052L22.6683 17.2131H21.769L21.926 16.9059H21.0333ZM22.847 20.4904C22.826 20.4594 22.8411 20.4047 22.8731 20.2909L23.2089 19.1468H24.4034C24.5775 19.1442 24.7032 19.1421 24.7849 19.1361C24.8727 19.1266 24.9682 19.0943 25.0723 19.0364C25.1797 18.9757 25.2346 18.9117 25.2811 18.8382C25.3328 18.7649 25.4159 18.6045 25.4873 18.3571L25.9094 16.9093L24.6698 16.9167C24.6698 16.9167 24.2881 16.9747 24.1201 17.0387C23.9505 17.1101 23.7082 17.3095 23.7082 17.3095L23.8201 16.9126H23.0544L21.9824 20.5725C21.9443 20.7147 21.9189 20.8178 21.913 20.8797C21.911 20.9465 21.9948 21.0125 22.0491 21.0624C22.1132 21.1122 22.2081 21.1041 22.2991 21.1122C22.3947 21.1197 22.5308 21.1243 22.7186 21.1243H23.3071L23.4877 20.4965L22.9609 20.5477C22.9046 20.5477 22.8639 20.5166 22.847 20.4904ZM23.4255 18.374H24.6802L24.6004 18.6314C24.5892 18.6374 24.5624 18.6186 24.4347 18.6342H23.3483L23.4255 18.374ZM23.6769 17.5109H24.9421L24.8511 17.8209C24.8511 17.8209 24.2548 17.8149 24.1593 17.833C23.739 17.9078 23.4936 18.1389 23.4936 18.1389L23.6769 17.5109ZM24.6285 19.4932C24.6181 19.5316 24.6017 19.5551 24.5788 19.5727C24.5533 19.5896 24.5121 19.5956 24.4506 19.5956H24.2718L24.2823 19.2822H23.5387L23.5086 20.8144C23.5074 20.925 23.5178 20.989 23.5964 21.0402C23.675 21.1042 23.9171 21.1123 24.243 21.1123H24.7089L24.8772 20.5388L24.4715 20.5617L24.3366 20.5698C24.3182 20.5617 24.3006 20.5543 24.281 20.5341C24.2639 20.5167 24.2351 20.5274 24.2398 20.4168L24.243 20.0241L24.6684 20.006C24.8981 20.006 24.9963 19.929 25.0801 19.8557C25.16 19.7855 25.1861 19.7048 25.2163 19.5956L25.2877 19.2479H24.7031L24.6285 19.4932Z" fill="#FEFEFE"/>
</svg>
