<svg width="45" height="31" viewBox="0 0 45 31" fill="none" xmlns="http://www.w3.org/2000/svg">
<rect width="44.2621" height="30.791" rx="5.77332" fill="white" fill-opacity="0.1"/>
<path fill-rule="evenodd" clip-rule="evenodd" d="M13.7931 20.3455H11.1505L9.16895 12.5632C9.07489 12.2052 8.87519 11.8888 8.58142 11.7396C7.84831 11.3648 7.04046 11.0664 6.15918 10.916V10.6164H10.4161C11.0037 10.6164 11.4443 11.0664 11.5177 11.5891L12.5459 17.2028L15.1872 10.6164H17.7563L13.7931 20.3455ZM19.2252 20.3455H16.7295L18.7845 10.6164H21.2802L19.2252 20.3455ZM24.5091 13.3116C24.5825 12.7876 25.0231 12.488 25.5372 12.488C26.3451 12.4128 27.2251 12.5632 27.9595 12.9368L28.4001 10.8421C27.6657 10.5424 26.8579 10.392 26.1247 10.392C23.7025 10.392 21.9399 11.7396 21.9399 13.6099C21.9399 15.0328 23.1884 15.7799 24.0697 16.23C25.0231 16.6788 25.3903 16.9784 25.3169 17.4272C25.3169 18.1003 24.5825 18.3999 23.8494 18.3999C22.9681 18.3999 22.0868 18.1755 21.2803 17.8007L20.8396 19.8967C21.7209 20.2703 22.6743 20.4207 23.5556 20.4207C26.2716 20.4947 27.9595 19.1483 27.9595 17.1275C27.9595 14.5827 24.5091 14.4336 24.5091 13.3116ZM36.6939 20.3455L34.7123 10.6164H32.5838C32.1431 10.6164 31.7025 10.916 31.5556 11.3648L27.8862 20.3455H30.4553L30.9681 18.9239H34.1248L34.4185 20.3455H36.6939ZM32.9508 13.2364L33.6839 16.9032H31.6289L32.9508 13.2364Z" fill="#172B85"/>
</svg>
